<svg xmlns="http://www.w3.org/2000/svg" viewBox="0 0 640 640"><defs><style>.cls-1{fill:#66ac9a;}.cls-2{fill:#cb4a25;}.cls-3{fill:#69163e;}.cls-4{fill:#dea630;}.cls-5{fill:#d16535;}</style></defs><g id="Option_A_Colors_1" data-name="Option A_Colors 1"><rect class="cls-1" y="-0.43" width="640" height="640.43"/><path class="cls-2" d="M446.29,437.32a9.58,9.58,0,0,1-9.58,9.59H369.2a10.4,10.4,0,0,1-10.38-10.38V330.65H256.33V355a16,16,0,0,1-4.52,11.19L231,387.72a18.37,18.37,0,0,0-5.2,12.85v11.6h19.55a25.42,25.42,0,0,1,25.39,25.39,6.35,6.35,0,0,1-6.35,6.35H190.29a9.46,9.46,0,0,1-9.45-9.44V369.1l100.41-60.6h76l63.13,35.75L402,392.16V411h18A26.38,26.38,0,0,1,446.29,437.32Z"/><path d="M364.67,309.9l-6.46-3.65,65.21,36.93Z"/><path class="cls-3" d="M196.23,222.57l-1,.18-.17,0-.15-.8,1.14-.5C196.1,221.85,196.16,222.21,196.23,222.57Z"/><path class="cls-3" d="M346,197.37H277.46a123.55,123.55,0,0,0-49.41,10.24l-32,13.87a219.21,219.21,0,0,1-3-34.93,93,93,0,0,1,45.9-80l1.76-1L194,77.66a11,11,0,0,1-.7-5C195,52.18,198.49,43,201.15,43c3.32,0,15,4.46,26.51,9.25l.32.14c3.35,1.39,6.67,2.8,9.77,4.15s6.18,2.69,8.67,3.81l.73.32.35.15,5.58,2.4L266.73,69a1.13,1.13,0,0,1-.51-.1l18.23,7.82,28.23,11.39a2,2,0,0,1,.47,3.5,27.54,27.54,0,0,1-28.43,3.21c-.39-.17-.76-.37-1.13-.56l-1.77-.94v2c0,.3,0,.6,0,.86C282.63,129.92,323.07,178.79,346,197.37Z"/><path d="M196.23,222.57l-1,.18-.17,0-1.19.22-.09-.53,1.13-.49,1.14-.5C196.1,221.85,196.16,222.21,196.23,222.57Z"/><path d="M240.53,55.13l-.08,0-9.25-4,0,0C234.56,52.56,237.73,53.93,240.53,55.13Z"/><path d="M249.82,59.25l-6.58-2.78.1,0,0,0c1.32.58,2.51,1.1,3.52,1.56l1,.42Z"/><path d="M266.73,69a1.13,1.13,0,0,1-.51-.1l-16.5-7.07-.88-.39-.33-.15-1-.47,5.58,2.4Z"/><path class="cls-2" d="M266.71,66.4a.45.45,0,0,0-.12.06l-15.9-6.81-.31-.15-.17-.07-.27-.12-.12-.06-6.58-2.78.1,0,0,0c1.32.58,2.51,1.1,3.52,1.56l1,.42L254,61Z"/><path class="cls-2" d="M381.23,91.35a1,1,0,0,1-1.24,0c-3.23-2.3-6.23-4.47-9.05-6.51-1.11-.8-2.2-1.58-3.25-2.35a65.48,65.48,0,0,0-25.62-28.85c-13.21-8.22-29.86-12.81-46.84-12.94l-.75,0a99.54,99.54,0,0,0-17.86,1.62,96.8,96.8,0,0,0-10.14,2.41,144.4,144.4,0,0,0-26,10.41l-.08,0-9.25-4,0,0a186.69,186.69,0,0,1,28.59-9.5c3.91-1,7.87-1.77,11.81-2.37a136.43,136.43,0,0,1,20.76-1.58h.81c34.18.22,77.88,14,88.52,52.28A1.22,1.22,0,0,1,381.23,91.35Z"/><path d="M237.75,56.57c-3.1-1.35-6.42-2.76-9.77-4.15l9.69,4.18,8.75,3.78C243.93,59.26,241,58,237.75,56.57ZM254,61l-6.16-2.66-1-.42-3.57-1.54-.1,0,6.58,2.78.12.06.27.12.17.07.31.15,15.9,6.81Zm-1,2.21,13.14,5.68a1.13,1.13,0,0,0,.51.1Zm-5.2-4.87,1.94.87.12.06.27.12.17.07L254,61Z"/><path class="cls-4" d="M266.71,66.4a.45.45,0,0,0-.12.06l-15.9-6.81-.31-.15-.17-.07-.27-.12-.12-.06-6.58-2.78.1,0,0,0c1.32.58,2.51,1.1,3.52,1.56l1,.42L254,61Z"/><path d="M247.5,60.85l-.35-.15-.73-.32c-2.49-1.12-5.46-2.42-8.67-3.81l-.08,0-.15.08,11,4.64.33.15,4.24,1.78ZM254,61l-3.66-1.54.31.15,15.9,6.81a.45.45,0,0,1,.12-.06Z"/><path class="cls-2" d="M216.63,94c-4,9.1-11.54,19.84-24.84,23a42.11,42.11,0,0,0,3.83-35.56Z"/><path class="cls-5" d="M131.36,269.58c-.16.9-.31,1.81-.47,2.72l.23.31.25-3.11A.22.22,0,0,1,131.36,269.58Zm0-.12a37,37,0,0,1,2.68-9.09A28.89,28.89,0,0,0,131.37,269.46Zm4-11.67c-.13.23-.27.45-.39.68s-.25.46-.37.7l0,.08c.38-.71.76-1.39,1.14-2C135.62,257.42,135.51,257.61,135.4,257.79Zm7.64-8.93a30.54,30.54,0,0,0-5.29,5.41,36.74,36.74,0,0,1,8.39-7.59A31.4,31.4,0,0,0,143,248.86Zm9-5.66a61.3,61.3,0,0,0-5.76,3.43,86,86,0,0,1,10.28-5.32l1.16-.52.68-.31,2.47-1.09Zm212.68,66.7-6.46-3.65,65.21,36.93Zm90.92-188.82a7.92,7.92,0,0,0-1.46.12,7.5,7.5,0,0,0-5.2,3.81c-4.6,7.55,2.26,15.28,5,17.88l11.58-18C463.7,123.62,459.55,121.08,455.59,121.08Zm0,0a7.92,7.92,0,0,0-1.46.12,7.5,7.5,0,0,0-5.2,3.81c-4.6,7.55,2.26,15.28,5,17.88l11.58-18C463.7,123.62,459.55,121.08,455.59,121.08Zm0,0a7.92,7.92,0,0,0-1.46.12,7.5,7.5,0,0,0-5.2,3.81c-4.6,7.55,2.26,15.28,5,17.88l11.58-18C463.7,123.62,459.55,121.08,455.59,121.08Zm0,0a7.92,7.92,0,0,0-1.46.12,7.5,7.5,0,0,0-5.2,3.81c-4.6,7.55,2.26,15.28,5,17.88l11.58-18C463.7,123.62,459.55,121.08,455.59,121.08Zm0,0a7.92,7.92,0,0,0-1.46.12,7.5,7.5,0,0,0-5.2,3.81c-4.6,7.55,2.26,15.28,5,17.88l11.58-18C463.7,123.62,459.55,121.08,455.59,121.08Zm0,0a7.92,7.92,0,0,0-1.46.12,7.5,7.5,0,0,0-5.2,3.81c-4.6,7.55,2.26,15.28,5,17.88l11.58-18C463.7,123.62,459.55,121.08,455.59,121.08Zm0,0a7.92,7.92,0,0,0-1.46.12,7.5,7.5,0,0,0-5.2,3.81c-4.6,7.55,2.26,15.28,5,17.88l11.58-18C463.7,123.62,459.55,121.08,455.59,121.08Zm0,0a7.92,7.92,0,0,0-1.46.12,7.5,7.5,0,0,0-5.2,3.81c-4.6,7.55,2.26,15.28,5,17.88l11.58-18C463.7,123.62,459.55,121.08,455.59,121.08Zm0,0a7.92,7.92,0,0,0-1.46.12,7.5,7.5,0,0,0-5.2,3.81c-4.6,7.55,2.26,15.28,5,17.88l11.58-18C463.7,123.62,459.55,121.08,455.59,121.08Zm12.62,138.06-1,0h-.29l-1.7,0-1.59,0h-1.54c-3.26,0-6.93,0-9.26-.13h-.34l-.7-.06h-.11l-8.19-.58c-4.69-.45-18.86-3.09-24-5.93-5.86-3.24-10.85-7.39-19.08-15.87L380,216.18a43.79,43.79,0,0,1-10.11-15.77,38.81,38.81,0,0,0,11.25,23.11L400.64,243c7.67,7.88,12.29,11.72,17.65,14.68,4.35,2.39,17.54,4.92,21.94,5.34l11.8.84,12.3-.19,5.63-.26ZM455.59,121.08a7.92,7.92,0,0,0-1.46.12,7.5,7.5,0,0,0-5.2,3.81c-4.6,7.55,2.26,15.28,5,17.88l11.58-18C463.7,123.62,459.55,121.08,455.59,121.08Zm0,0a7.92,7.92,0,0,0-1.46.12,7.5,7.5,0,0,0-5.2,3.81c-4.6,7.55,2.26,15.28,5,17.88l11.58-18C463.7,123.62,459.55,121.08,455.59,121.08Zm0,0a7.92,7.92,0,0,0-1.46.12,7.5,7.5,0,0,0-5.2,3.81c-4.6,7.55,2.26,15.28,5,17.88l11.58-18C463.7,123.62,459.55,121.08,455.59,121.08Zm0,0a7.92,7.92,0,0,0-1.46.12,7.5,7.5,0,0,0-5.2,3.81c-4.6,7.55,2.26,15.28,5,17.88l11.58-18C463.7,123.62,459.55,121.08,455.59,121.08Zm0,0a7.92,7.92,0,0,0-1.46.12,7.5,7.5,0,0,0-5.2,3.81c-4.6,7.55,2.26,15.28,5,17.88l11.58-18C463.7,123.62,459.55,121.08,455.59,121.08Zm0,0a7.92,7.92,0,0,0-1.46.12,7.5,7.5,0,0,0-5.2,3.81c-4.6,7.55,2.26,15.28,5,17.88l11.58-18C463.7,123.62,459.55,121.08,455.59,121.08Zm0,0a7.92,7.92,0,0,0-1.46.12,7.5,7.5,0,0,0-5.2,3.81c-4.6,7.55,2.26,15.28,5,17.88l11.58-18C463.7,123.62,459.55,121.08,455.59,121.08Zm0,0a7.92,7.92,0,0,0-1.46.12,7.5,7.5,0,0,0-5.2,3.81c-4.6,7.55,2.26,15.28,5,17.88l11.58-18C463.7,123.62,459.55,121.08,455.59,121.08Zm0,0a7.92,7.92,0,0,0-1.46.12,7.5,7.5,0,0,0-5.2,3.81c-4.6,7.55,2.26,15.28,5,17.88l11.58-18C463.7,123.62,459.55,121.08,455.59,121.08Zm0,0a7.92,7.92,0,0,0-1.46.12,7.5,7.5,0,0,0-5.2,3.81c-4.6,7.55,2.26,15.28,5,17.88l11.58-18C463.7,123.62,459.55,121.08,455.59,121.08Zm0,0a7.92,7.92,0,0,0-1.46.12,7.5,7.5,0,0,0-5.2,3.81c-4.6,7.55,2.26,15.28,5,17.88l11.58-18C463.7,123.62,459.55,121.08,455.59,121.08Zm0,0a7.92,7.92,0,0,0-1.46.12,7.5,7.5,0,0,0-5.2,3.81c-4.6,7.55,2.26,15.28,5,17.88l11.58-18C463.7,123.62,459.55,121.08,455.59,121.08Zm0,0a7.92,7.92,0,0,0-1.46.12,7.5,7.5,0,0,0-5.2,3.81c-4.6,7.55,2.26,15.28,5,17.88l11.58-18C463.7,123.62,459.55,121.08,455.59,121.08Zm0,0a7.92,7.92,0,0,0-1.46.12,7.5,7.5,0,0,0-5.2,3.81c-4.6,7.55,2.26,15.28,5,17.88l11.58-18C463.7,123.62,459.55,121.08,455.59,121.08Zm0,0a7.92,7.92,0,0,0-1.46.12,7.5,7.5,0,0,0-5.2,3.81c-4.6,7.55,2.26,15.28,5,17.88l11.58-18C463.7,123.62,459.55,121.08,455.59,121.08Zm0,0a7.92,7.92,0,0,0-1.46.12,7.5,7.5,0,0,0-5.2,3.81c-4.6,7.55,2.26,15.28,5,17.88l11.58-18C463.7,123.62,459.55,121.08,455.59,121.08Zm0,0a7.92,7.92,0,0,0-1.46.12,7.5,7.5,0,0,0-5.2,3.81c-4.6,7.55,2.26,15.28,5,17.88l11.58-18C463.7,123.62,459.55,121.08,455.59,121.08Zm0,0a7.92,7.92,0,0,0-1.46.12,7.5,7.5,0,0,0-5.2,3.81c-4.6,7.55,2.26,15.28,5,17.88l11.58-18C463.7,123.62,459.55,121.08,455.59,121.08Zm0,0a7.92,7.92,0,0,0-1.46.12,7.5,7.5,0,0,0-5.2,3.81c-4.6,7.55,2.26,15.28,5,17.88l11.58-18C463.7,123.62,459.55,121.08,455.59,121.08Zm0,0a7.92,7.92,0,0,0-1.46.12,7.5,7.5,0,0,0-5.2,3.81c-4.6,7.55,2.26,15.28,5,17.88l11.58-18C463.7,123.62,459.55,121.08,455.59,121.08Zm0,0a7.92,7.92,0,0,0-1.46.12,7.5,7.5,0,0,0-5.2,3.81c-4.6,7.55,2.26,15.28,5,17.88l11.58-18C463.7,123.62,459.55,121.08,455.59,121.08Zm0,0a7.92,7.92,0,0,0-1.46.12,7.5,7.5,0,0,0-5.2,3.81c-4.6,7.55,2.26,15.28,5,17.88l11.58-18C463.7,123.62,459.55,121.08,455.59,121.08Zm0,0a7.92,7.92,0,0,0-1.46.12,7.5,7.5,0,0,0-5.2,3.81c-4.6,7.55,2.26,15.28,5,17.88l11.58-18C463.7,123.62,459.55,121.08,455.59,121.08Zm0,0a7.92,7.92,0,0,0-1.46.12,7.5,7.5,0,0,0-5.2,3.81c-4.6,7.55,2.26,15.28,5,17.88l11.58-18C463.7,123.62,459.55,121.08,455.59,121.08Zm0,0a7.92,7.92,0,0,0-1.46.12,7.5,7.5,0,0,0-5.2,3.81c-4.6,7.55,2.26,15.28,5,17.88l11.58-18C463.7,123.62,459.55,121.08,455.59,121.08Zm0,0a7.92,7.92,0,0,0-1.46.12,7.5,7.5,0,0,0-5.2,3.81c-4.6,7.55,2.26,15.28,5,17.88l11.58-18C463.7,123.62,459.55,121.08,455.59,121.08Zm0,0a7.92,7.92,0,0,0-1.46.12,7.5,7.5,0,0,0-5.2,3.81c-4.6,7.55,2.26,15.28,5,17.88l11.58-18C463.7,123.62,459.55,121.08,455.59,121.08Zm0,0a7.92,7.92,0,0,0-1.46.12,7.5,7.5,0,0,0-5.2,3.81c-4.6,7.55,2.26,15.28,5,17.88l11.58-18C463.7,123.62,459.55,121.08,455.59,121.08Zm0,0a7.92,7.92,0,0,0-1.46.12,7.5,7.5,0,0,0-5.2,3.81c-4.6,7.55,2.26,15.28,5,17.88l11.58-18C463.7,123.62,459.55,121.08,455.59,121.08Zm0,0a7.92,7.92,0,0,0-1.46.12,7.5,7.5,0,0,0-5.2,3.81c-4.6,7.55,2.26,15.28,5,17.88l11.58-18C463.7,123.62,459.55,121.08,455.59,121.08Zm0,0a7.92,7.92,0,0,0-1.46.12,7.5,7.5,0,0,0-5.2,3.81c-4.6,7.55,2.26,15.28,5,17.88l11.58-18C463.7,123.62,459.55,121.08,455.59,121.08Zm9.64,135.7,2.43,0h0ZM453.89,142.89l11.58-18c-1.77-1.22-5.92-3.76-9.88-3.76a7.92,7.92,0,0,0-1.46.12,7.5,7.5,0,0,0-5.2,3.81C444.33,132.56,451.19,140.29,453.89,142.89Zm-.51,113.82,2.71.2,6.37-.1C459.32,256.83,455.73,256.82,453.38,256.71Zm2.21-135.63a7.92,7.92,0,0,0-1.46.12,7.5,7.5,0,0,0-5.2,3.81c-4.6,7.55,2.26,15.28,5,17.88l11.58-18C463.7,123.62,459.55,121.08,455.59,121.08Zm0,0a7.92,7.92,0,0,0-1.46.12,7.5,7.5,0,0,0-5.2,3.81c-4.6,7.55,2.26,15.28,5,17.88l11.58-18C463.7,123.62,459.55,121.08,455.59,121.08Zm0,0a7.92,7.92,0,0,0-1.46.12,7.5,7.5,0,0,0-5.2,3.81c-4.6,7.55,2.26,15.28,5,17.88l11.58-18C463.7,123.62,459.55,121.08,455.59,121.08Zm0,0a7.92,7.92,0,0,0-1.46.12,7.5,7.5,0,0,0-5.2,3.81c-4.6,7.55,2.26,15.28,5,17.88l11.58-18C463.7,123.62,459.55,121.08,455.59,121.08Zm0,0a7.92,7.92,0,0,0-1.46.12,7.5,7.5,0,0,0-5.2,3.81c-4.6,7.55,2.26,15.28,5,17.88l11.58-18C463.7,123.62,459.55,121.08,455.59,121.08Zm0,0a7.92,7.92,0,0,0-1.46.12,7.5,7.5,0,0,0-5.2,3.81c-4.6,7.55,2.26,15.28,5,17.88l11.58-18C463.7,123.62,459.55,121.08,455.59,121.08Zm0,0a7.92,7.92,0,0,0-1.46.12,7.5,7.5,0,0,0-5.2,3.81c-4.6,7.55,2.26,15.28,5,17.88l11.58-18C463.7,123.62,459.55,121.08,455.59,121.08Zm0,0a7.92,7.92,0,0,0-1.46.12,7.5,7.5,0,0,0-5.2,3.81c-4.6,7.55,2.26,15.28,5,17.88l11.58-18C463.7,123.62,459.55,121.08,455.59,121.08Zm0,0a7.92,7.92,0,0,0-1.46.12,7.5,7.5,0,0,0-5.2,3.81c-4.6,7.55,2.26,15.28,5,17.88l11.58-18C463.7,123.62,459.55,121.08,455.59,121.08Zm0,0a7.92,7.92,0,0,0-1.46.12,7.5,7.5,0,0,0-5.2,3.81c-4.6,7.55,2.26,15.28,5,17.88l11.58-18C463.7,123.62,459.55,121.08,455.59,121.08Zm0,0a7.92,7.92,0,0,0-1.46.12,7.5,7.5,0,0,0-5.2,3.81c-4.6,7.55,2.26,15.28,5,17.88l11.58-18C463.7,123.62,459.55,121.08,455.59,121.08Zm0,0a7.92,7.92,0,0,0-1.46.12,7.5,7.5,0,0,0-5.2,3.81c-4.6,7.55,2.26,15.28,5,17.88l11.58-18C463.7,123.62,459.55,121.08,455.59,121.08Zm0,0a7.92,7.92,0,0,0-1.46.12,7.5,7.5,0,0,0-5.2,3.81c-4.6,7.55,2.26,15.28,5,17.88l11.58-18C463.7,123.62,459.55,121.08,455.59,121.08Zm0,0a7.92,7.92,0,0,0-1.46.12,7.5,7.5,0,0,0-5.2,3.81c-4.6,7.55,2.26,15.28,5,17.88l11.58-18C463.7,123.62,459.55,121.08,455.59,121.08Zm0,0a7.92,7.92,0,0,0-1.46.12,7.5,7.5,0,0,0-5.2,3.81c-4.6,7.55,2.26,15.28,5,17.88l11.58-18C463.7,123.62,459.55,121.08,455.59,121.08Zm0,0a7.92,7.92,0,0,0-1.46.12,7.5,7.5,0,0,0-5.2,3.81c-4.6,7.55,2.26,15.28,5,17.88l11.58-18C463.7,123.62,459.55,121.08,455.59,121.08Zm0,0a7.92,7.92,0,0,0-1.46.12,7.5,7.5,0,0,0-5.2,3.81c-4.6,7.55,2.26,15.28,5,17.88l11.58-18C463.7,123.62,459.55,121.08,455.59,121.08Zm0,0a7.92,7.92,0,0,0-1.46.12,7.5,7.5,0,0,0-5.2,3.81c-4.6,7.55,2.26,15.28,5,17.88l11.58-18C463.7,123.62,459.55,121.08,455.59,121.08Zm0,0a7.92,7.92,0,0,0-1.46.12,7.5,7.5,0,0,0-5.2,3.81c-4.6,7.55,2.26,15.28,5,17.88l11.58-18C463.7,123.62,459.55,121.08,455.59,121.08Zm0,0a7.92,7.92,0,0,0-1.46.12,7.5,7.5,0,0,0-5.2,3.81c-4.6,7.55,2.26,15.28,5,17.88l11.58-18C463.7,123.62,459.55,121.08,455.59,121.08Zm0,0a7.92,7.92,0,0,0-1.46.12,7.5,7.5,0,0,0-5.2,3.81c-4.6,7.55,2.26,15.28,5,17.88l11.58-18C463.7,123.62,459.55,121.08,455.59,121.08Zm0,0a7.92,7.92,0,0,0-1.46.12,7.5,7.5,0,0,0-5.2,3.81c-4.6,7.55,2.26,15.28,5,17.88l11.58-18C463.7,123.62,459.55,121.08,455.59,121.08Zm0,0a7.92,7.92,0,0,0-1.46.12,7.5,7.5,0,0,0-5.2,3.81c-4.6,7.55,2.26,15.28,5,17.88l11.58-18C463.7,123.62,459.55,121.08,455.59,121.08Zm0,0a7.92,7.92,0,0,0-1.46.12,7.5,7.5,0,0,0-5.2,3.81c-4.6,7.55,2.26,15.28,5,17.88l11.58-18C463.7,123.62,459.55,121.08,455.59,121.08Zm0,0a7.92,7.92,0,0,0-1.46.12,7.5,7.5,0,0,0-5.2,3.81c-4.6,7.55,2.26,15.28,5,17.88l11.58-18C463.7,123.62,459.55,121.08,455.59,121.08Zm0,0a7.92,7.92,0,0,0-1.46.12,7.5,7.5,0,0,0-5.2,3.81c-4.6,7.55,2.26,15.28,5,17.88l11.58-18C463.7,123.62,459.55,121.08,455.59,121.08Zm0,0a7.92,7.92,0,0,0-1.46.12,7.5,7.5,0,0,0-5.2,3.81c-4.6,7.55,2.26,15.28,5,17.88l11.58-18C463.7,123.62,459.55,121.08,455.59,121.08Zm0,0a7.92,7.92,0,0,0-1.46.12,7.5,7.5,0,0,0-5.2,3.81c-4.6,7.55,2.26,15.28,5,17.88l11.58-18C463.7,123.62,459.55,121.08,455.59,121.08Zm0,0a7.92,7.92,0,0,0-1.46.12,7.5,7.5,0,0,0-5.2,3.81c-4.6,7.55,2.26,15.28,5,17.88l11.58-18C463.7,123.62,459.55,121.08,455.59,121.08Zm0,0a7.92,7.92,0,0,0-1.46.12,7.5,7.5,0,0,0-5.2,3.81c-4.6,7.55,2.26,15.28,5,17.88l11.58-18C463.7,123.62,459.55,121.08,455.59,121.08Zm0,0a7.92,7.92,0,0,0-1.46.12,7.5,7.5,0,0,0-5.2,3.81c-4.6,7.55,2.26,15.28,5,17.88l11.58-18C463.7,123.62,459.55,121.08,455.59,121.08Zm0,0a7.92,7.92,0,0,0-1.46.12,7.5,7.5,0,0,0-5.2,3.81c-4.6,7.55,2.26,15.28,5,17.88l11.58-18C463.7,123.62,459.55,121.08,455.59,121.08Zm-85.78,78.7h-.16l.21.59C369.85,200.18,369.82,200,369.81,199.78Zm85.78-78.7a7.92,7.92,0,0,0-1.46.12,7.5,7.5,0,0,0-5.2,3.81c-4.6,7.55,2.26,15.28,5,17.88l11.58-18C463.7,123.62,459.55,121.08,455.59,121.08Zm0,0a7.92,7.92,0,0,0-1.46.12,7.5,7.5,0,0,0-5.2,3.81c-4.6,7.55,2.26,15.28,5,17.88l11.58-18C463.7,123.62,459.55,121.08,455.59,121.08Zm0,0a7.92,7.92,0,0,0-1.46.12,7.5,7.5,0,0,0-5.2,3.81c-4.6,7.55,2.26,15.28,5,17.88l11.58-18C463.7,123.62,459.55,121.08,455.59,121.08Zm0,0a7.92,7.92,0,0,0-1.46.12,7.5,7.5,0,0,0-5.2,3.81c-4.6,7.55,2.26,15.28,5,17.88l11.58-18C463.7,123.62,459.55,121.08,455.59,121.08Zm0,0a7.92,7.92,0,0,0-1.46.12,7.5,7.5,0,0,0-5.2,3.81c-4.6,7.55,2.26,15.28,5,17.88l11.58-18C463.7,123.62,459.55,121.08,455.59,121.08Zm0,0a7.92,7.92,0,0,0-1.46.12,7.5,7.5,0,0,0-5.2,3.81c-4.6,7.55,2.26,15.28,5,17.88l11.58-18C463.7,123.62,459.55,121.08,455.59,121.08Zm89.51,35.07q-.09-.3-.21-.6c0-.09-.06-.18-.09-.27s0,0,0-.05,0,0,0-.06c-.14-.37-.29-.74-.46-1.1-.07-.16-.15-.31-.23-.47s-.09-.2-.15-.3a17.9,17.9,0,0,0-7.55-7.57l-.1,0h0l-.57-.3c-1.24,2.67-4.07,9.92-1.52,15.88,1.58,3.67,5,6.29,10.15,7.82A19.48,19.48,0,0,0,545.1,156.15Zm-89.51-35.07a7.92,7.92,0,0,0-1.46.12,7.5,7.5,0,0,0-5.2,3.81c-4.6,7.55,2.26,15.28,5,17.88l11.58-18C463.7,123.62,459.55,121.08,455.59,121.08Zm0,0a7.92,7.92,0,0,0-1.46.12,7.5,7.5,0,0,0-5.2,3.81c-4.6,7.55,2.26,15.28,5,17.88l11.58-18C463.7,123.62,459.55,121.08,455.59,121.08Z"/><path class="cls-5" d="M543.21,171.25l-13.72,26.1a15.45,15.45,0,0,1-20.89,6.51L480.26,189h0l-9.66-29.78,15.27-25.85,19.47-3.95h0l28.18,14.82c-1.37,2.91-4.58,11-1.59,17.94C533.76,166.45,537.55,169.5,543.21,171.25Z"/><path d="M143,248.86a30.54,30.54,0,0,0-5.29,5.41,36.74,36.74,0,0,1,8.39-7.59A31.4,31.4,0,0,0,143,248.86Zm-11.67,20.6a37,37,0,0,1,2.68-9.09A28.89,28.89,0,0,0,131.37,269.46Zm0,0a37,37,0,0,1,2.68-9.09A28.89,28.89,0,0,0,131.37,269.46ZM143,248.86a30.54,30.54,0,0,0-5.29,5.41,36.74,36.74,0,0,1,8.39-7.59A31.4,31.4,0,0,0,143,248.86Z"/><path d="M448.43,357.35h0l.14.25Zm0,0h0l.14.25Zm0,0h0l.14.25ZM196,221.48l-1.14.5-1.13.49.09.53,1.19-.22.17,0,1-.18C196.16,222.21,196.1,221.85,196,221.48Zm-36.14,15.67L151,241l-.08,0a63,63,0,0,0-6,3.55,87.44,87.44,0,0,1,10.6-5.5l4.36-1.94Zm-26.88,20a2.32,2.32,0,0,0-.2.38c.06-.13.13-.25.2-.38ZM507.15,127.65l-1.43-.76h0l-3.75.77,1.69.88,1.68.89h0l1.72-.35.28-.06.21-.16c.27-.2.53-.39.78-.59ZM548,158.08a21.91,21.91,0,0,1-1,10.67A19.87,19.87,0,0,0,548,158.08Zm-.1-.54c0-.09,0-.18,0-.28,0,.24.08.46.12.69A2.7,2.7,0,0,0,547.93,157.54Zm-10.11-13.76a23.07,23.07,0,0,1,7.84,7.7A20.16,20.16,0,0,0,537.82,143.78Zm-2.14,1.57s0,0,0,0l.57.3Zm-87.25,212h0l.14.25Z"/><path d="M546.93,154.11c-.14-.35-.29-.68-.44-1,.11.24.22.49.32.74Z"/><polygon class="cls-5" points="448.54 357.59 448.4 357.34 448.43 357.35 448.54 357.59"/><path class="cls-3" d="M544.3,169.07c-5.16-1.53-8.57-4.15-10.15-7.82-2.55-6,.28-13.21,1.52-15.88,0,0,0,0,0,0l.56.32h0l.1,0a17.9,17.9,0,0,1,7.55,7.57c.06.1.1.21.15.3s.16.31.23.47a9.78,9.78,0,0,1,.46,1.1s0,0,0,.06,0,0,0,.05.07.18.09.27.15.4.21.6A19.48,19.48,0,0,1,544.3,169.07Z"/><path d="M547.07,154.45a1.39,1.39,0,0,0-.12-.28c.11.25.2.52.29.78A4.91,4.91,0,0,0,547.07,154.45Zm-.26-.62c-.1-.25-.21-.5-.32-.74.15.34.3.67.44,1Zm-10.45-8.1-.1,0a20.51,20.51,0,0,1,7.65,7.62A17.9,17.9,0,0,0,536.36,145.73Zm-.69-3.09,1.82,1A14.42,14.42,0,0,0,535.67,142.64Z"/><path class="cls-2" d="M100.36,219.9c16.37,20.64,28.9,36.38,31.44,39.57-.1.21-.19.42-.28.62s-.19.43-.28.64l-.37.91-.24.65-.09.23c-.08.27-.17.52-.25.77s-.19.56-.27.83c0,.1-.05.19-.08.29s-.1.38-.15.56c-.15.52-.27,1-.36,1.46-6.59-8.57-30.61-39.65-42-52.47l-1.3-1.47c-12-13.49-28.34-31.94-29.6-55.76-1.39-26.14,14.59-41.87,51.81-51,27.6-6.78,49.05-10.2,59.38-11.64a8.72,8.72,0,0,1,1-.06,7.09,7.09,0,0,1,1.22.1h0a4.34,4.34,0,0,1,.6.14,5.08,5.08,0,0,1,.59.18,5.71,5.71,0,0,1,1,.49,5.43,5.43,0,0,1,.51.32c.16.12.31.24.47.38a7,7,0,0,1,2.3,4.66,218.25,218.25,0,0,0-54.58,7.5C102.35,113,81.63,119.71,71.36,134c-8.85,12.27-10.15,24-4.22,38,5.5,13,17,27.46,31.49,45.76Z"/><path class="cls-2" d="M132.56,258c-.05.1-.11.21-.16.32a0,0,0,0,0,0,0Z"/><path class="cls-2" d="M171.84,125c-9.62,5.19-26.08,7-36.68,6.13a30.73,30.73,0,0,1-12.82-4l-.11,0c-9.14-4.78-15.94-3.88-16.62-3.78-1.08.12-13.79,1.8-18.31,18.06-3.36,12.11.77,24.26,13.42,39.43,18.92,22.67,32.93,36.07,59.17,56.44h0l-4.36,1.94a87.44,87.44,0,0,0-10.6,5.5,38.74,38.74,0,0,0-9.82,9.21c-.13.17-.26.37-.39.56-.53.77-1.06,1.62-1.58,2.54,0,.08-.09.15-.13.22s-.14.25-.2.38a2.32,2.32,0,0,1,.2-.38c-3.62-4.55-15.52-19.52-30.76-38.73l-1.73-2.18c-28.88-36.4-44.79-56.46-27.2-80.86,9.8-13.6,30.06-20.16,48.29-25.24a214.69,214.69,0,0,1,54.51-7.42C177.15,110.69,177.48,121.94,171.84,125Z"/><path d="M168.78,94a8.25,8.25,0,0,1,1.22.1A7.09,7.09,0,0,0,168.78,94Zm3.6-.37-.06,0a5.65,5.65,0,0,1,.6.31A5.61,5.61,0,0,0,172.38,93.64ZM141.51,247a32.67,32.67,0,0,0-6.4,6.82,38.74,38.74,0,0,1,9.82-9.21A33.49,33.49,0,0,0,141.51,247ZM152,243.2a61.3,61.3,0,0,0-5.76,3.43,86,86,0,0,1,10.28-5.32l1.16-.52.68-.31,2.47-1.09ZM141.51,247a32.67,32.67,0,0,0-6.4,6.82,38.74,38.74,0,0,1,9.82-9.21A33.49,33.49,0,0,0,141.51,247Zm-6.11,10.8c-.13.23-.27.45-.39.68s-.25.46-.37.7l0,.08c.38-.71.76-1.39,1.14-2,.26-.43.52-.83.77-1.22A18.57,18.57,0,0,0,135.4,257.79Zm-3,.49a0,0,0,0,1,0,0c0-.11.11-.22.16-.32Zm-1,11.3c-.16.9-.31,1.81-.47,2.72l.23.31.25-3.11A.22.22,0,0,1,131.36,269.58Z"/><path d="M172,93.45l.35.17.06,0Z"/><path class="cls-4" d="M172.92,93.93a5.65,5.65,0,0,0-.6-.31l-.35-.17.41.19A5.61,5.61,0,0,1,172.92,93.93Z"/><path d="M576.45,416.24a32.12,32.12,0,0,0-22.89-9.48h-16L470.69,257.6l17.85-26.36a18.63,18.63,0,0,0,1.81-17.59l-8.71-21.2L507.47,206a17.9,17.9,0,0,0,24.16-7.52L546,171.1v0a3.85,3.85,0,0,0,.2-.41l.13-.25c0-.11.09-.21.14-.33l.16-.4a.25.25,0,0,0,0-.09c.06-.13.12-.28.17-.42l0-.09.12-.34a21.91,21.91,0,0,0,1-10.67l0-.13c0-.23-.08-.45-.12-.69-.12-.54-.25-1.1-.43-1.66-.06-.22-.14-.44-.21-.65s-.18-.53-.29-.78a.14.14,0,0,1,0-.06c-.14-.35-.29-.68-.44-1s-.2-.44-.31-.65-.34-.65-.52-1a23.07,23.07,0,0,0-7.84-7.7l-.09-.05-.24-.14-1.82-1-.06,0-27.28-14.34c-.25.2-.51.39-.78.59l-.21.16-.28.06-1.72.35,28.18,14.82c-1.37,2.91-4.58,11-1.59,17.94,1.83,4.26,5.62,7.31,11.28,9.06l-13.72,26.1a15.45,15.45,0,0,1-20.89,6.51L480.26,189h0l-9.66-29.78,15.27-25.85,19.47-3.95-1.68-.89-1.69-.88-17.63,3.57L468,158.94l10,30.76h0l.16.5,1,2.35h0l9.05,22a16.21,16.21,0,0,1-1.57,15.32l-17,25.12h0l-1.17,1.71h-.7l-2.43,0h-2.77l-6.37.1-2.71-.2-.41,0-.29,0-.75-.05-1.16-.09-7.06-.5c-4.62-.45-18.45-3.11-23-5.64-5.63-3.12-10.47-7.15-18.53-15.45l-20.47-20.47a41.06,41.06,0,0,1-9.48-14.69c-.3-.79-.57-1.6-.82-2.41a41.71,41.71,0,0,1-1.78-12.09V142.65a41,41,0,0,1,12.08-29.19l30.15-30.14A41,41,0,0,1,441,71.23h42.64a41,41,0,0,1,29.16,12.06c.09.09,8.76,9.46,7.72,21.45-.69,8-5.48,15.41-14.23,22l-.6.12,1.43.76,1.18.62c9-7,13.91-14.8,14.63-23.34,1.12-13.08-8-22.88-8.4-23.33a43.44,43.44,0,0,0-30.89-12.79H441A43.42,43.42,0,0,0,410.14,81.6L380,111.76a43.42,43.42,0,0,0-12.79,30.89v53.17c0,.52,0,1,0,1.55H349.93c-25.46-19.18-64-68.19-65.63-100.06a30,30,0,0,0,25.2-.56,30.73,30.73,0,0,0,5.12-3.2,4.44,4.44,0,0,0-1-7.64L285.38,74.52l-11.62-5c12.5-6.69,26-5.68,37.68-3.73,25.12,4.18,36.67,13.65,55.34,32.78a2.68,2.68,0,0,0,1.92.84,2.82,2.82,0,0,0,1.35-.36,3.89,3.89,0,0,0,1.81-4.26,69.06,69.06,0,0,0-2.42-8.07.31.31,0,0,0,.09.07c2.82,2,5.82,4.22,9.06,6.52a3.42,3.42,0,0,0,2,.64,3.57,3.57,0,0,0,2-.65,3.62,3.62,0,0,0,1.44-4c-11-39.54-55.82-53.82-90.79-54-.29,0-.57,0-.87,0a138.73,138.73,0,0,0-21.13,1.61c-4,.62-8,1.43-12,2.42a190.27,190.27,0,0,0-31.11,10.54c-11.24-4.66-23.23-9.24-27-9.24-5,0-8.47,10.7-10.25,31.8A13.42,13.42,0,0,0,192,79l.15.35.11.07h0a39.56,39.56,0,0,1-4,38.61,1.2,1.2,0,0,0,1,1.9h.18c12.81-1.9,22.92-10.43,29.32-24.69L236,105.55a95.39,95.39,0,0,0-45.36,81,219.71,219.71,0,0,0,3.12,35.92l1.13-.49,1.14-.5a219.21,219.21,0,0,1-3-34.93,93,93,0,0,1,45.9-80l1.76-1L194,77.66a11,11,0,0,1-.7-5C195,52.18,198.49,43,201.15,43c3.32,0,15,4.46,26.51,9.25l.32.14c3.35,1.39,6.67,2.8,9.77,4.15s6.18,2.69,8.67,3.81l.73.32.35.15,5.58,2.4,13.14,5.68,18.23,7.82,28.23,11.39a2,2,0,0,1,.47,3.5,27.54,27.54,0,0,1-28.43,3.21c-.39-.17-.76-.37-1.13-.56l-1.77-.94v2c0,.3,0,.6,0,.86.78,33.71,41.22,82.58,64.18,101.16H277.46a123.55,123.55,0,0,0-49.41,10.24l-32,13.87c.07.37.13.73.2,1.09l-1,.18-.17,0-1.19.22-.09-.53-31.35,13.59c-26.75-20.71-40.8-34.09-59.83-56.9-12.09-14.5-16.08-26-13-37.23,4.23-15.2,15.74-16.27,16.22-16.3l.12,0c.06,0,6.46-1,15.11,3.5A32.53,32.53,0,0,0,135,133.5c9.08.78,26.69-.3,38-6.41,7.26-3.9,6.79-17.13,5.12-27.53a9.25,9.25,0,0,0-2.75-5.24l-.27-.26a2.29,2.29,0,0,0-.23-.21,9.62,9.62,0,0,0-5.67-2.25,10.31,10.31,0,0,0-1.75.08,607.19,607.19,0,0,0-59.62,11.69c-38,9.35-55.1,26.34-53.66,53.49,1.31,24.65,18,43.48,30.21,57.23l1.31,1.46c12.37,14,39.92,49.84,43.22,54.14-3.41,20.31-9.38,46.82-18.52,58.84-12.58,16.55-38.28,42.92-45.86,50.61a10.8,10.8,0,0,0-3.13,7.64v48.65a10.9,10.9,0,0,0,10.89,10.9h78.2a5.21,5.21,0,0,0,5.21-5.21A33.17,33.17,0,0,0,122.51,408h-9.65c1.22-4.19,6-16.34,22-20.81,16.84-4.71,37.57-14,43.61-16.84v64.16a11.87,11.87,0,0,0,11.86,11.86h74.07a8.77,8.77,0,0,0,8.77-8.77,27.84,27.84,0,0,0-27.81-27.81H228.18v-9.18a16,16,0,0,1,4.53-11.18l20.84-21.58a18.39,18.39,0,0,0,5.2-12.86V333.06H356.4V436.53a12.81,12.81,0,0,0,12.8,12.79h67.51a12,12,0,0,0,12-12,28.81,28.81,0,0,0-28.77-28.77H404.36V392.61l18.18-47.15,24,13.61,37.77,78.4a14.37,14.37,0,0,0,13.3,8.86h81.09a7.21,7.21,0,0,0,7.19-7.2A32.12,32.12,0,0,0,576.45,416.24Zm-42.3-255c-2.55-6,.28-13.21,1.52-15.88,0,0,0,0,0,0l.56.32h0l.1,0a17.9,17.9,0,0,1,7.55,7.57c.06.1.1.21.15.3s.16.31.23.47a9.78,9.78,0,0,1,.46,1.1s0,0,0,.06,0,0,0,.05.07.18.09.27.15.4.21.6a19.48,19.48,0,0,1-.8,12.92C539.14,167.54,535.73,164.92,534.15,161.25ZM216.63,94c-4,9.1-11.54,19.84-24.84,23a42.11,42.11,0,0,0,3.83-35.56Zm23.82-38.82-9.25-4,0,0a186.69,186.69,0,0,1,28.59-9.5c3.91-1,7.87-1.77,11.81-2.37a136.43,136.43,0,0,1,20.76-1.58h.81c34.18.22,77.88,14,88.52,52.28a1.22,1.22,0,0,1-.5,1.35,1,1,0,0,1-1.24,0c-3.23-2.3-6.23-4.47-9.05-6.51-1.11-.8-2.2-1.58-3.25-2.35a65.48,65.48,0,0,0-25.62-28.85c-13.21-8.22-29.86-12.81-46.84-12.94l-.75,0a99.54,99.54,0,0,0-17.86,1.62,96.8,96.8,0,0,0-10.14,2.41,144.4,144.4,0,0,0-26,10.41ZM269.53,67.6,268.09,67l-1.38-.59a.45.45,0,0,0-.12.06l-15.9-6.81-.31-.15-.17-.07-.27-.12-.12-.06-6.58-2.78.1,0,0,0A139.7,139.7,0,0,1,267.16,47a96.08,96.08,0,0,1,27.32-3.93h.68c24.33.19,54.4,10.14,68.44,36.46.41.75.81,1.53,1.18,2.31h0q.54,1.09,1,2.22a66.41,66.41,0,0,1,3.7,11.24,1.47,1.47,0,0,1-.61,1.59.26.26,0,0,1-.39,0c-19-19.52-30.84-29.19-56.66-33.48a96.05,96.05,0,0,0-15.75-1.5c-8.25,0-16.81,1.53-25,6.33ZM380,216.18l20.46,20.45c8.23,8.48,13.22,12.63,19.08,15.87,5.13,2.84,19.3,5.48,24,5.93l8.19.58h.11l.7.06h.34c2.33.14,6,.16,9.26.13h1.54l1.59,0,1.7,0h.29l1,0,1.75,4.23-5.63.26-12.3.19-11.8-.84c-4.4-.42-17.59-3-21.94-5.34-5.36-3-10-6.8-17.65-14.68l-19.52-19.44a38.81,38.81,0,0,1-11.25-23.11A43.79,43.79,0,0,0,380,216.18Zm-10.17-16.4c0,.2,0,.4.05.59l-.21-.59ZM176.12,102.7c1,8,1.36,19.24-4.28,22.27-9.62,5.19-26.08,7-36.68,6.13a30.73,30.73,0,0,1-12.82-4l-.11,0c-9.14-4.78-15.94-3.88-16.62-3.78-1.08.12-13.79,1.8-18.31,18.06-3.36,12.11.77,24.26,13.42,39.43,18.92,22.67,32.93,36.07,59.17,56.44h0l-4.36,1.94a87.44,87.44,0,0,0-10.6,5.5,38.74,38.74,0,0,0-9.82,9.21c-.13.17-.26.37-.39.56-.53.77-1.06,1.62-1.58,2.54,0,.08-.09.15-.13.22s-.14.25-.2.38a2.32,2.32,0,0,1,.2-.38c-3.62-4.55-15.52-19.52-30.76-38.73l-1.73-2.18c-28.88-36.4-44.79-56.46-27.2-80.86,9.8-13.6,30.06-20.16,48.29-25.24A214.69,214.69,0,0,1,176.12,102.7ZM132.56,258c-.05.1-.11.21-.16.32a0,0,0,0,0,0,0ZM172.38,93.64a5.61,5.61,0,0,1,.54.29,5.65,5.65,0,0,0-.6-.31ZM87.47,214l-1.3-1.47c-12-13.49-28.34-31.94-29.6-55.76-1.39-26.14,14.59-41.87,51.81-51,27.6-6.78,49.05-10.2,59.38-11.64a8.72,8.72,0,0,1,1-.06,7.09,7.09,0,0,1,1.22.1h0a4.34,4.34,0,0,1,.6.14,5.08,5.08,0,0,1,.59.18,5.71,5.71,0,0,1,1,.49,5.43,5.43,0,0,1,.51.32c.16.12.31.24.47.38a7,7,0,0,1,2.3,4.66,218.25,218.25,0,0,0-54.58,7.5C102.35,113,81.63,119.71,71.36,134c-8.85,12.27-10.15,24-4.22,38,5.5,13,17,27.46,31.49,45.76l1.73,2.18c16.37,20.64,28.9,36.38,31.44,39.57-.1.21-.19.42-.28.62s-.19.43-.28.64l-.37.91-.24.65-.09.23c-.08.27-.17.52-.25.77s-.19.56-.27.83c0,.1-.05.19-.08.29s-.1.38-.15.56c-.15.52-.27,1-.36,1.46C122.84,257.86,98.82,226.78,87.47,214ZM402,392.16V411h18a26.38,26.38,0,0,1,26.35,26.35,9.58,9.58,0,0,1-9.58,9.59H369.2a10.4,10.4,0,0,1-10.38-10.38V330.65H256.33V355a16,16,0,0,1-4.52,11.19L231,387.72a18.37,18.37,0,0,0-5.2,12.85v11.6h19.55a25.42,25.42,0,0,1,25.39,25.39,6.35,6.35,0,0,1-6.35,6.35H190.29a9.46,9.46,0,0,1-9.45-9.44V369.1l100.41-60.6h76l63.13,35.75Zm176.79,51.75H497.65a12,12,0,0,1-11.1-7.43l-38-78.79,0-.06,0,0-.14-.25-4-2.26-21-11.9-65.21-36.93-.28-.16H280.58L179.07,367.35l-.08,0c-2,.93-25.91,12.14-44.82,17.45-20.46,5.72-24,23.92-24,24.11l-.25,1.42h12.63a30.74,30.74,0,0,1,30.75,30.75,2.79,2.79,0,0,1-2.79,2.79H72.27a8.49,8.49,0,0,1-8.48-8.48V386.78a8.43,8.43,0,0,1,2.44-5.95C76,371,100,346.2,112.28,330c9.12-12,15.09-37.44,18.61-57.7.16-.91.31-1.82.47-2.72a.22.22,0,0,0,0-.08v0a28.89,28.89,0,0,1,2.68-9.09c.07-.17.16-.34.24-.51l.05-.1c.08-.17.16-.34.26-.51l0-.08c.12-.24.23-.47.37-.7a5.91,5.91,0,0,1,.39-.68,18.57,18.57,0,0,1,1.11-1.77l0,0,0,0c.24-.36.49-.7.73-1,.11-.17.24-.35.37-.52a.94.94,0,0,0,.09-.12,30.54,30.54,0,0,1,5.29-5.41,31.4,31.4,0,0,1,3.1-2.18l.09-.05A61.3,61.3,0,0,1,152,243.2l8.83-3.81,1.67-.73.23-.1.75-.33,38-16.45L229,209.83a121.13,121.13,0,0,1,48.45-10.05h89.92a41.2,41.2,0,0,0,12,25.44l19.51,19.44c7.85,8.05,12.61,12,18.2,15.09,4.91,2.71,18.43,5.21,22.91,5.64l11.88.84H452L464.4,266l7.29-.33L536,409.17h17.55a29.94,29.94,0,0,1,30,30A4.79,4.79,0,0,1,578.74,443.91Z"/><path class="cls-4" d="M368.89,97a.26.26,0,0,1-.39,0c-19-19.52-30.84-29.19-56.66-33.48a96.05,96.05,0,0,0-15.75-1.5c-8.25,0-16.81,1.53-25,6.33l-1.58-.66L268.09,67l-1.38-.59L254,61l-6.16-2.66-1-.42c-1-.46-2.2-1-3.52-1.56A139.7,139.7,0,0,1,267.16,47a96.08,96.08,0,0,1,27.32-3.93h.68c24.33.19,54.4,10.14,68.44,36.46.41.75.81,1.53,1.18,2.31h0q.54,1.09,1,2.22a66.41,66.41,0,0,1,3.7,11.24A1.47,1.47,0,0,1,368.89,97Z"/><path class="cls-5" d="M583.52,439.13a4.79,4.79,0,0,1-4.78,4.78H497.65a12,12,0,0,1-11.1-7.43l-38-78.79,0-.06,0,0-.11-.24h0l-4-2.26-21-11.9L364.67,309.9l-6.46-3.65-.28-.16H280.58L179.07,367.35l-.08,0c-2,.93-25.91,12.14-44.82,17.45-20.46,5.72-24,23.92-24,24.11l-.25,1.42h12.63a30.74,30.74,0,0,1,30.75,30.75,2.79,2.79,0,0,1-2.79,2.79H72.27a8.49,8.49,0,0,1-8.48-8.48V386.78a8.43,8.43,0,0,1,2.44-5.95C76,371,100,346.2,112.28,330c9.12-12,15.09-37.44,18.61-57.7l.23.31.25-3.11v0a37,37,0,0,1,2.68-9.09c.07-.17.16-.34.24-.51l.05-.1.26-.51c.38-.71.76-1.39,1.14-2,.26-.43.52-.83.77-1.22l0,0,0,0c.24-.36.49-.7.73-1,.12-.18.25-.35.37-.52a.94.94,0,0,0,.09-.12,36.74,36.74,0,0,1,8.39-7.59l.09-.05a86,86,0,0,1,10.28-5.32l1.16-.52.68-.31,2.47-1.09,1.67-.73.23-.1.75-.33,38-16.45L229,209.83a121.13,121.13,0,0,1,48.45-10.05h89.92a41.2,41.2,0,0,0,12,25.44l19.51,19.44c7.85,8.05,12.61,12,18.2,15.09,4.91,2.71,18.43,5.21,22.91,5.64l11.88.84H452L464.4,266l7.29-.33L536,409.17h17.55a29.94,29.94,0,0,1,30,30Z"/><path class="cls-4" d="M100.36,219.9c16.37,20.64,28.9,36.38,31.44,39.57-.1.21-.19.42-.28.62s-.19.43-.28.64l-.37.91-.24.65-.09.23c-.08.27-.17.52-.25.77s-.19.56-.27.83c0,.1-.05.19-.08.29s-.1.38-.15.56c-.15.52-.27,1-.36,1.46-6.59-8.57-30.61-39.65-42-52.47l-1.3-1.47c-12-13.49-28.34-31.94-29.6-55.76-1.39-26.14,14.59-41.87,51.81-51,27.6-6.78,49.05-10.2,59.38-11.64a8.72,8.72,0,0,1,1-.06,7.09,7.09,0,0,1,1.22.1h0a4.34,4.34,0,0,1,.6.14,5.08,5.08,0,0,1,.59.18,5.71,5.71,0,0,1,1,.49,5.43,5.43,0,0,1,.51.32c.16.12.31.24.47.38a7,7,0,0,1,2.3,4.66,218.25,218.25,0,0,0-54.58,7.5C102.35,113,81.63,119.71,71.36,134c-8.85,12.27-10.15,24-4.22,38,5.5,13,17,27.46,31.49,45.76Z"/><path d="M172.38,93.64l-.06,0a5.65,5.65,0,0,1,.6.31A5.61,5.61,0,0,0,172.38,93.64Zm2.43.17a9.16,9.16,0,0,0-5.63-2.21,9.62,9.62,0,0,1,5.67,2.25S174.83,93.82,174.81,93.81ZM132.39,258.28a0,0,0,0,1,0,0c0-.11.11-.22.16-.32Zm.62-1.15a2.32,2.32,0,0,0-.2.38c.06-.13.13-.25.2-.38Zm-1.65,12.45c-.16.9-.31,1.81-.47,2.72l.23.31.25-3.11A.22.22,0,0,1,131.36,269.58Z"/><path class="cls-2" d="M369.86,200.37l-.21-.59h.16C369.82,200,369.85,200.18,369.86,200.37Z"/><path class="cls-2" d="M470,263.37l-5.63.26-12.3.19-11.8-.84c-4.4-.42-17.59-3-21.94-5.34-5.36-3-10-6.8-17.65-14.68l-19.52-19.44a38.81,38.81,0,0,1-11.25-23.11A43.79,43.79,0,0,0,380,216.18l20.46,20.45c8.23,8.48,13.22,12.63,19.08,15.87,5.13,2.84,19.3,5.48,24,5.93l8.19.58h.11l.7.06h.34c2.33.14,6,.16,9.26.13h1.54l1.59,0,1.7,0h.29l1,0Z"/><path d="M369.86,200.37l-.21-.59h.16C369.82,200,369.85,200.18,369.86,200.37Z"/><path d="M452.51,259.08c-.25,0-.5,0-.7-.06Z"/><path d="M462.46,256.81l-6.37.1-2.71-.2C455.73,256.82,459.32,256.83,462.46,256.81Z"/><path d="M369.81,199.78h-.16l.21.59C369.85,200.18,369.82,200,369.81,199.78Zm137.34-72.13-1.43-.76h0l-3.75.77,1.69.88,1.68.89h0l1.72-.35.28-.06.21-.16c.27-.2.53-.39.78-.59ZM465.23,256.78l2.43,0h0Zm-12.38,2.31,3.12.23h0l6.09-.1C458.85,259.25,455.18,259.23,452.85,259.09Z"/><path class="cls-3" d="M455.59,121.08c4,0,8.11,2.54,9.88,3.76l-11.58,18c-2.7-2.6-9.56-10.33-5-17.88a7.5,7.5,0,0,1,5.2-3.81A7.92,7.92,0,0,1,455.59,121.08Z"/><path class="cls-3" d="M453.38,256.71l2.71.2,6.37-.1C459.32,256.83,455.73,256.82,453.38,256.71Z"/><path class="cls-3" d="M512.83,83.29a41,41,0,0,0-29.16-12.06H441a41,41,0,0,0-29.19,12.09l-30.15,30.14a41,41,0,0,0-12.08,29.19v42.63a41.71,41.71,0,0,0,1.78,12.09c.25.81.52,1.62.82,2.41a41.06,41.06,0,0,0,9.48,14.69l20.47,20.47c8.06,8.3,12.9,12.33,18.53,15.45,4.57,2.53,18.4,5.19,23,5.64l7.06.5,1.16.09.75.05.29,0,.41,0c2.35.11,5.94.12,9.08.1h2.77l2.43,0h.7l1.17-1.71h0l17-25.12a16.21,16.21,0,0,0,1.57-15.32l-9.05-22h0l-1-2.35-.16-.5h0l-10-30.76,16.38-27.71L502,127.66l3.75-.77h0l.6-.12c8.75-6.62,13.54-14,14.23-22C521.59,92.75,512.92,83.38,512.83,83.29Zm-58.41,63.23-1.05-.84c-.12-.11-13.21-10.92-6.5-21.93a9.9,9.9,0,0,1,6.85-4.93c6.65-1.16,13.83,4.53,14.14,4.77l.84.68Z"/><path d="M467.86,123.59c-.31-.24-7.49-5.93-14.14-4.77a9.9,9.9,0,0,0-6.85,4.93c-6.71,11,6.38,21.82,6.5,21.93l1.05.84,14.28-22.25Zm-14,19.3c-2.7-2.6-9.56-10.33-5-17.88a7.5,7.5,0,0,1,5.2-3.81,7.92,7.92,0,0,1,1.46-.12c4,0,8.11,2.54,9.88,3.76Z"/><path class="cls-4" d="M465.47,124.84l-11.58,18c-2.7-2.6-9.56-10.33-5-17.88a7.5,7.5,0,0,1,5.2-3.81,7.92,7.92,0,0,1,1.46-.12C459.55,121.08,463.7,123.62,465.47,124.84Z"/><path d="M94.22,604.71a33,33,0,0,1-17.5-4.83,35.46,35.46,0,0,1-12.45-13,36.13,36.13,0,0,1-4.61-18.15l.17-55.07a35.45,35.45,0,0,1,4.48-17.76,35,35,0,0,1,12.37-12.88,34.34,34.34,0,0,1,35-.13,35.6,35.6,0,0,1,17,30.77v8.1a.61.61,0,0,1-.69.69H108.18a.61.61,0,0,1-.69-.69v-8.1a14.55,14.55,0,0,0-3.79-10.08,12.21,12.21,0,0,0-9.48-4.23q-6.28,0-9.65,4.31a15.82,15.82,0,0,0-3.36,10v55.07A14.92,14.92,0,0,0,85,579.32a12.1,12.1,0,0,0,9.22,4.1,11.87,11.87,0,0,0,9.48-4.53,15.36,15.36,0,0,0,3.79-10.13v-8.18a.61.61,0,0,1,.69-.69h20a.61.61,0,0,1,.69.69v8.18a35.89,35.89,0,0,1-4.66,18.1,37.26,37.26,0,0,1-12.49,13A32.32,32.32,0,0,1,94.22,604.71Z"/><path d="M162.31,603h-20c-.46,0-.69-.29-.69-.86l.18-121.27c0-.46.28-.69.86-.69h19.65c.57,0,.86.23.86.69l-.17,48h26.46v-48a.61.61,0,0,1,.69-.69H209.8c.57,0,.86.23.86.69L211,602.12a.77.77,0,0,1-.87.86H190.32a.76.76,0,0,1-.86-.86V550.23H163v51.89C163,602.69,162.77,603,162.31,603Z"/><path d="M246.26,603h-20a.76.76,0,0,1-.86-.86l.17-121.27a.61.61,0,0,1,.69-.69h19.83a.61.61,0,0,1,.69.69L247,602.12C247,602.69,246.72,603,246.26,603Z"/><path d="M283.15,603h-20c-.46,0-.69-.29-.69-.86l.35-121.27a.61.61,0,0,1,.69-.69H285a1.49,1.49,0,0,1,1.21.69l16.12,23.27,16-23.27a1.55,1.55,0,0,1,1.29-.69h21.64c.51,0,.77.23.77.69l.35,121.27c0,.57-.24.86-.69.86h-20c-.46,0-.69-.29-.69-.86l-.17-90.07-18.53,26.89L284,512.05l-.17,90.07C283.84,602.69,283.61,603,283.15,603Z"/><path d="M414.93,603H357.87c-.46,0-.69-.29-.69-.86l.18-121.27a.61.61,0,0,1,.69-.69h56.71c.46,0,.69.29.69.86v19.74a.61.61,0,0,1-.69.69h-36.2V529h36.2a.61.61,0,0,1,.69.69l.17,20a.61.61,0,0,1-.69.69H378.56v30.85h36.37c.46,0,.69.29.69.86v20.17A.61.61,0,0,1,414.93,603Z"/><path d="M452,603H432c-.46,0-.69-.29-.69-.86l.34-121.27a.61.61,0,0,1,.69-.69H468a34.36,34.36,0,0,1,17.59,4.66,35.77,35.77,0,0,1,12.79,12.49,33.43,33.43,0,0,1,4.79,17.76,33,33,0,0,1-2,11.72,37.8,37.8,0,0,1-4.62,8.88,27.81,27.81,0,0,1-4.78,5.34,36,36,0,0,1,9.57,24.91l.17,36.2a.76.76,0,0,1-.86.86h-20c-.46,0-.69-.17-.69-.52V565.92a15.35,15.35,0,0,0-4.48-11,14.69,14.69,0,0,0-11-4.66H452.85l-.17,51.89C452.68,602.69,452.45,603,452,603Zm16-101.7H452.85V529H468a13.71,13.71,0,0,0,9.7-4,13.53,13.53,0,0,0,.13-19.61A13.49,13.49,0,0,0,468,501.28Z"/><path d="M510.43,602.12l21.89-121.27a.82.82,0,0,1,.86-.69h25.6a.81.81,0,0,1,.86.69l21,121.27c.06.57-.17.86-.69.86H560.42a.85.85,0,0,1-.95-.86l-1.9-12.93h-24l-1.9,12.93c-.06.57-.34.86-.86.86H511.12C510.66,603,510.43,602.69,510.43,602.12ZM545,520.76l-7.93,49.56h17l-7.24-49.56-1-6.55Z"/><path d="M506.94,144.93H496.22a1.21,1.21,0,1,1,0-2.41h10.72a1.21,1.21,0,0,1,0,2.41Z"/><path d="M142.78,110.83a1.21,1.21,0,0,1-.1-2.41l8-.67a1.21,1.21,0,0,1,.2,2.41l-8,.67Z"/><path d="M249.08,74.5a1.25,1.25,0,0,1-.58-.15l-9.85-5.46a1.21,1.21,0,1,1,1.17-2.11l9.85,5.46a1.21,1.21,0,0,1-.59,2.26Z"/></g></svg>