<svg xmlns="http://www.w3.org/2000/svg" viewBox="0 0 640 640"><defs><style>.cls-1{fill:#cb4a25;}.cls-2{fill:#69163e;}.cls-3{fill:#dea630;}.cls-4{fill:#d16535;}</style></defs><g id="Option_A_Colors_1" data-name="Option A_Colors 1"><path class="cls-1" d="M465.54,544.73a11.06,11.06,0,0,1-11,11H376.69a12,12,0,0,1-12-12v-122H246.63v28a18.49,18.49,0,0,1-5.21,12.89l-24,24.87a21.19,21.19,0,0,0-6,14.81v13.36h22.53A29.3,29.3,0,0,1,263.2,545a7.32,7.32,0,0,1-7.31,7.33H170.52a10.91,10.91,0,0,1-10.88-10.89V466.11l115.71-69.83H363l72.75,41.2-21.28,55.2v21.68h20.73A30.41,30.41,0,0,1,465.54,544.73Z"/><path d="M371.48,397.89,364,393.68l75.15,42.57Z"/><path class="cls-2" d="M177.37,297.25l-1.17.22-.21,0c-.05-.3-.11-.61-.16-.92l1.31-.58C177.22,296.43,177.29,296.84,177.37,297.25Z"/><path class="cls-2" d="M350,268.21H271A142.35,142.35,0,0,0,214,280l-36.89,16a252.13,252.13,0,0,1-3.44-40.26,107.13,107.13,0,0,1,52.9-92.14l2-1.19-53.81-32.14a12.75,12.75,0,0,1-.82-5.8c2-23.57,6-34.11,9-34.11,3.83,0,17.26,5.14,30.55,10.66l.37.15c3.86,1.61,7.69,3.24,11.26,4.79s7.12,3.1,10,4.39l.84.37.4.18,6.43,2.76,15.73,6.66a1.3,1.3,0,0,1-.58-.11l21,9,32.53,13.13a2.31,2.31,0,0,1,1.44,1.84,2.35,2.35,0,0,1-.9,2.18A32,32,0,0,1,292.69,153a31.34,31.34,0,0,1-13.35-2.94c-.44-.19-.87-.42-1.3-.64l-2-1.08v2.3c0,.35,0,.69,0,1C276.94,190.49,323.54,246.81,350,268.21Z"/><path d="M177.37,297.25l-1.17.22-.21,0-1.36.25c0-.2-.07-.4-.11-.61l1.31-.56,1.31-.58C177.22,296.43,177.29,296.84,177.37,297.25Z"/><path d="M228.41,104.31l-.08,0-10.66-4.61h.05C221.54,101.34,225.2,102.92,228.41,104.31Z"/><path d="M239.12,109.05l-7.58-3.2.12-.06.06,0c1.52.67,2.89,1.27,4.06,1.8l1.11.49Z"/><path d="M258.61,120.32a1.3,1.3,0,0,1-.58-.11l-19-8.15-1-.46-.39-.16c-.36-.18-.75-.36-1.16-.54l6.43,2.76Z"/><path class="cls-1" d="M258.58,117.29a.56.56,0,0,0-.13.07l-18.32-7.85-.36-.17-.19-.08-.32-.14-.14-.07-7.58-3.2.12-.06.06,0c1.52.67,2.89,1.27,4.06,1.8l1.11.49,7.1,3.06Z"/><path class="cls-1" d="M390.56,146a1.23,1.23,0,0,1-1.43,0c-3.72-2.66-7.18-5.16-10.43-7.51l-3.74-2.7a75.54,75.54,0,0,0-29.53-33.26c-15.22-9.47-34.41-14.76-54-14.91l-.87,0A113.89,113.89,0,0,0,270,89.53a110.31,110.31,0,0,0-11.7,2.78,166.24,166.24,0,0,0-29.91,12l-.08,0-10.66-4.61h.05a214.17,214.17,0,0,1,32.95-11c4.49-1.13,9.06-2,13.6-2.74a158.47,158.47,0,0,1,23.93-1.82c.28,0,.57,0,.92,0,39.4.25,89.75,16.18,102,60.25A1.42,1.42,0,0,1,390.56,146Z"/><path d="M225.22,106c-3.57-1.55-7.4-3.18-11.26-4.79L225.12,106l10.09,4.36C232.34,109.06,228.92,107.56,225.22,106ZM244,111.11l-7.1-3.06-1.11-.49-4.12-1.77-.12.06,7.58,3.2.14.07.32.14.19.08.36.17,18.32,7.85Zm-1.11,2.55L258,120.21a1.3,1.3,0,0,0,.58.11Zm-6-5.61,2.23,1,.14.07.32.14.19.08,4.22,1.77Z"/><path class="cls-3" d="M258.58,117.29a.56.56,0,0,0-.13.07l-18.32-7.85-.36-.17-.19-.08-.32-.14-.14-.07-7.58-3.2.12-.06.06,0c1.52.67,2.89,1.27,4.06,1.8l1.11.49,7.1,3.06Z"/><path d="M236.45,110.9l-.4-.18-.84-.37c-2.87-1.29-6.29-2.79-10-4.39l-.1,0-.16.1,12.65,5.35.39.16,4.88,2.06Zm7.54.21-4.22-1.77.36.17,18.32,7.85a.56.56,0,0,1,.13-.07Z"/><path class="cls-1" d="M200.88,149.09c-4.66,10.48-13.3,22.86-28.62,26.5a48.55,48.55,0,0,0,4.4-41Z"/><path class="cls-4" d="M102.61,351.43c-.17,1-.35,2.08-.54,3.14l.27.35.29-3.58S102.62,351.4,102.61,351.43Zm0-.13a42.5,42.5,0,0,1,3.09-10.48A33.09,33.09,0,0,0,102.63,351.3Zm4.64-13.46c-.15.26-.31.52-.45.79s-.29.53-.43.8l0,.1c.43-.83.87-1.6,1.31-2.33Zm8.8-10.29a35.46,35.46,0,0,0-6.09,6.24,41.88,41.88,0,0,1,9.67-8.75A36.23,36.23,0,0,0,116.07,327.55ZM126.39,321a71.47,71.47,0,0,0-6.64,4,100.54,100.54,0,0,1,11.84-6.13l1.35-.6.78-.35,2.84-1.26Zm245.09,76.86L364,393.68l75.15,42.57ZM476.25,180.3a9.45,9.45,0,0,0-1.68.14,8.64,8.64,0,0,0-6,4.39c-5.3,8.69,2.61,17.6,5.71,20.6l13.35-20.8C485.6,183.22,480.82,180.3,476.25,180.3Zm0,0a9.45,9.45,0,0,0-1.68.14,8.64,8.64,0,0,0-6,4.39c-5.3,8.69,2.61,17.6,5.71,20.6l13.35-20.8C485.6,183.22,480.82,180.3,476.25,180.3Zm0,0a9.45,9.45,0,0,0-1.68.14,8.64,8.64,0,0,0-6,4.39c-5.3,8.69,2.61,17.6,5.71,20.6l13.35-20.8C485.6,183.22,480.82,180.3,476.25,180.3Zm0,0a9.45,9.45,0,0,0-1.68.14,8.64,8.64,0,0,0-6,4.39c-5.3,8.69,2.61,17.6,5.71,20.6l13.35-20.8C485.6,183.22,480.82,180.3,476.25,180.3Zm0,0a9.45,9.45,0,0,0-1.68.14,8.64,8.64,0,0,0-6,4.39c-5.3,8.69,2.61,17.6,5.71,20.6l13.35-20.8C485.6,183.22,480.82,180.3,476.25,180.3Zm0,0a9.45,9.45,0,0,0-1.68.14,8.64,8.64,0,0,0-6,4.39c-5.3,8.69,2.61,17.6,5.71,20.6l13.35-20.8C485.6,183.22,480.82,180.3,476.25,180.3Zm0,0a9.45,9.45,0,0,0-1.68.14,8.64,8.64,0,0,0-6,4.39c-5.3,8.69,2.61,17.6,5.71,20.6l13.35-20.8C485.6,183.22,480.82,180.3,476.25,180.3Zm0,0a9.45,9.45,0,0,0-1.68.14,8.64,8.64,0,0,0-6,4.39c-5.3,8.69,2.61,17.6,5.71,20.6l13.35-20.8C485.6,183.22,480.82,180.3,476.25,180.3Zm0,0a9.45,9.45,0,0,0-1.68.14,8.64,8.64,0,0,0-6,4.39c-5.3,8.69,2.61,17.6,5.71,20.6l13.35-20.8C485.6,183.22,480.82,180.3,476.25,180.3Zm14.54,159.1-1.13,0h-.33l-2,0-1.83,0h-1.77c-3.76,0-8,0-10.67-.15h-.39l-.82-.07h-.12l-9.44-.67c-5.4-.51-21.73-3.56-27.65-6.83-6.75-3.73-12.5-8.52-22-18.29l-23.58-23.57a50.46,50.46,0,0,1-11.65-18.17,44.77,44.77,0,0,0,13,26.63l22.49,22.41c8.85,9.07,14.17,13.49,20.35,16.91,5,2.76,20.21,5.67,25.28,6.15l13.6,1,14.18-.22,6.49-.3ZM476.25,180.3a9.45,9.45,0,0,0-1.68.14,8.64,8.64,0,0,0-6,4.39c-5.3,8.69,2.61,17.6,5.71,20.6l13.35-20.8C485.6,183.22,480.82,180.3,476.25,180.3Zm0,0a9.45,9.45,0,0,0-1.68.14,8.64,8.64,0,0,0-6,4.39c-5.3,8.69,2.61,17.6,5.71,20.6l13.35-20.8C485.6,183.22,480.82,180.3,476.25,180.3Zm0,0a9.45,9.45,0,0,0-1.68.14,8.64,8.64,0,0,0-6,4.39c-5.3,8.69,2.61,17.6,5.71,20.6l13.35-20.8C485.6,183.22,480.82,180.3,476.25,180.3Zm0,0a9.45,9.45,0,0,0-1.68.14,8.64,8.64,0,0,0-6,4.39c-5.3,8.69,2.61,17.6,5.71,20.6l13.35-20.8C485.6,183.22,480.82,180.3,476.25,180.3Zm0,0a9.45,9.45,0,0,0-1.68.14,8.64,8.64,0,0,0-6,4.39c-5.3,8.69,2.61,17.6,5.71,20.6l13.35-20.8C485.6,183.22,480.82,180.3,476.25,180.3Zm0,0a9.45,9.45,0,0,0-1.68.14,8.64,8.64,0,0,0-6,4.39c-5.3,8.69,2.61,17.6,5.71,20.6l13.35-20.8C485.6,183.22,480.82,180.3,476.25,180.3Zm0,0a9.45,9.45,0,0,0-1.68.14,8.64,8.64,0,0,0-6,4.39c-5.3,8.69,2.61,17.6,5.71,20.6l13.35-20.8C485.6,183.22,480.82,180.3,476.25,180.3Zm0,0a9.45,9.45,0,0,0-1.68.14,8.64,8.64,0,0,0-6,4.39c-5.3,8.69,2.61,17.6,5.71,20.6l13.35-20.8C485.6,183.22,480.82,180.3,476.25,180.3Zm0,0a9.45,9.45,0,0,0-1.68.14,8.64,8.64,0,0,0-6,4.39c-5.3,8.69,2.61,17.6,5.71,20.6l13.35-20.8C485.6,183.22,480.82,180.3,476.25,180.3Zm0,0a9.45,9.45,0,0,0-1.68.14,8.64,8.64,0,0,0-6,4.39c-5.3,8.69,2.61,17.6,5.71,20.6l13.35-20.8C485.6,183.22,480.82,180.3,476.25,180.3Zm0,0a9.45,9.45,0,0,0-1.68.14,8.64,8.64,0,0,0-6,4.39c-5.3,8.69,2.61,17.6,5.71,20.6l13.35-20.8C485.6,183.22,480.82,180.3,476.25,180.3Zm0,0a9.45,9.45,0,0,0-1.68.14,8.64,8.64,0,0,0-6,4.39c-5.3,8.69,2.61,17.6,5.71,20.6l13.35-20.8C485.6,183.22,480.82,180.3,476.25,180.3Zm0,0a9.45,9.45,0,0,0-1.68.14,8.64,8.64,0,0,0-6,4.39c-5.3,8.69,2.61,17.6,5.71,20.6l13.35-20.8C485.6,183.22,480.82,180.3,476.25,180.3Zm0,0a9.45,9.45,0,0,0-1.68.14,8.64,8.64,0,0,0-6,4.39c-5.3,8.69,2.61,17.6,5.71,20.6l13.35-20.8C485.6,183.22,480.82,180.3,476.25,180.3Zm0,0a9.45,9.45,0,0,0-1.68.14,8.64,8.64,0,0,0-6,4.39c-5.3,8.69,2.61,17.6,5.71,20.6l13.35-20.8C485.6,183.22,480.82,180.3,476.25,180.3Zm0,0a9.45,9.45,0,0,0-1.68.14,8.64,8.64,0,0,0-6,4.39c-5.3,8.69,2.61,17.6,5.71,20.6l13.35-20.8C485.6,183.22,480.82,180.3,476.25,180.3Zm0,0a9.45,9.45,0,0,0-1.68.14,8.64,8.64,0,0,0-6,4.39c-5.3,8.69,2.61,17.6,5.71,20.6l13.35-20.8C485.6,183.22,480.82,180.3,476.25,180.3Zm0,0a9.45,9.45,0,0,0-1.68.14,8.64,8.64,0,0,0-6,4.39c-5.3,8.69,2.61,17.6,5.71,20.6l13.35-20.8C485.6,183.22,480.82,180.3,476.25,180.3Zm0,0a9.45,9.45,0,0,0-1.68.14,8.64,8.64,0,0,0-6,4.39c-5.3,8.69,2.61,17.6,5.71,20.6l13.35-20.8C485.6,183.22,480.82,180.3,476.25,180.3Zm0,0a9.45,9.45,0,0,0-1.68.14,8.64,8.64,0,0,0-6,4.39c-5.3,8.69,2.61,17.6,5.71,20.6l13.35-20.8C485.6,183.22,480.82,180.3,476.25,180.3Zm0,0a9.45,9.45,0,0,0-1.68.14,8.64,8.64,0,0,0-6,4.39c-5.3,8.69,2.61,17.6,5.71,20.6l13.35-20.8C485.6,183.22,480.82,180.3,476.25,180.3Zm0,0a9.45,9.45,0,0,0-1.68.14,8.64,8.64,0,0,0-6,4.39c-5.3,8.69,2.61,17.6,5.71,20.6l13.35-20.8C485.6,183.22,480.82,180.3,476.25,180.3Zm0,0a9.45,9.45,0,0,0-1.68.14,8.64,8.64,0,0,0-6,4.39c-5.3,8.69,2.61,17.6,5.71,20.6l13.35-20.8C485.6,183.22,480.82,180.3,476.25,180.3Zm0,0a9.45,9.45,0,0,0-1.68.14,8.64,8.64,0,0,0-6,4.39c-5.3,8.69,2.61,17.6,5.71,20.6l13.35-20.8C485.6,183.22,480.82,180.3,476.25,180.3Zm0,0a9.45,9.45,0,0,0-1.68.14,8.64,8.64,0,0,0-6,4.39c-5.3,8.69,2.61,17.6,5.71,20.6l13.35-20.8C485.6,183.22,480.82,180.3,476.25,180.3Zm0,0a9.45,9.45,0,0,0-1.68.14,8.64,8.64,0,0,0-6,4.39c-5.3,8.69,2.61,17.6,5.71,20.6l13.35-20.8C485.6,183.22,480.82,180.3,476.25,180.3Zm0,0a9.45,9.45,0,0,0-1.68.14,8.64,8.64,0,0,0-6,4.39c-5.3,8.69,2.61,17.6,5.71,20.6l13.35-20.8C485.6,183.22,480.82,180.3,476.25,180.3Zm0,0a9.45,9.45,0,0,0-1.68.14,8.64,8.64,0,0,0-6,4.39c-5.3,8.69,2.61,17.6,5.71,20.6l13.35-20.8C485.6,183.22,480.82,180.3,476.25,180.3Zm0,0a9.45,9.45,0,0,0-1.68.14,8.64,8.64,0,0,0-6,4.39c-5.3,8.69,2.61,17.6,5.71,20.6l13.35-20.8C485.6,183.22,480.82,180.3,476.25,180.3Zm0,0a9.45,9.45,0,0,0-1.68.14,8.64,8.64,0,0,0-6,4.39c-5.3,8.69,2.61,17.6,5.71,20.6l13.35-20.8C485.6,183.22,480.82,180.3,476.25,180.3Zm0,0a9.45,9.45,0,0,0-1.68.14,8.64,8.64,0,0,0-6,4.39c-5.3,8.69,2.61,17.6,5.71,20.6l13.35-20.8C485.6,183.22,480.82,180.3,476.25,180.3Zm11.11,156.37c1.11,0,2.07,0,2.8,0v0ZM474.29,205.43l13.35-20.8c-2-1.41-6.82-4.33-11.39-4.33a9.45,9.45,0,0,0-1.68.14,8.64,8.64,0,0,0-6,4.39C463.28,193.52,471.19,202.43,474.29,205.43Zm-.58,131.17,3.12.22,7.34-.11C480.55,336.74,476.41,336.73,473.71,336.6Zm2.54-156.3a9.45,9.45,0,0,0-1.68.14,8.64,8.64,0,0,0-6,4.39c-5.3,8.69,2.61,17.6,5.71,20.6l13.35-20.8C485.6,183.22,480.82,180.3,476.25,180.3Zm0,0a9.45,9.45,0,0,0-1.68.14,8.64,8.64,0,0,0-6,4.39c-5.3,8.69,2.61,17.6,5.71,20.6l13.35-20.8C485.6,183.22,480.82,180.3,476.25,180.3Zm0,0a9.45,9.45,0,0,0-1.68.14,8.64,8.64,0,0,0-6,4.39c-5.3,8.69,2.61,17.6,5.71,20.6l13.35-20.8C485.6,183.22,480.82,180.3,476.25,180.3Zm0,0a9.45,9.45,0,0,0-1.68.14,8.64,8.64,0,0,0-6,4.39c-5.3,8.69,2.61,17.6,5.71,20.6l13.35-20.8C485.6,183.22,480.82,180.3,476.25,180.3Zm0,0a9.45,9.45,0,0,0-1.68.14,8.64,8.64,0,0,0-6,4.39c-5.3,8.69,2.61,17.6,5.71,20.6l13.35-20.8C485.6,183.22,480.82,180.3,476.25,180.3Zm0,0a9.45,9.45,0,0,0-1.68.14,8.64,8.64,0,0,0-6,4.39c-5.3,8.69,2.61,17.6,5.71,20.6l13.35-20.8C485.6,183.22,480.82,180.3,476.25,180.3Zm0,0a9.45,9.45,0,0,0-1.68.14,8.64,8.64,0,0,0-6,4.39c-5.3,8.69,2.61,17.6,5.71,20.6l13.35-20.8C485.6,183.22,480.82,180.3,476.25,180.3Zm0,0a9.45,9.45,0,0,0-1.68.14,8.64,8.64,0,0,0-6,4.39c-5.3,8.69,2.61,17.6,5.71,20.6l13.35-20.8C485.6,183.22,480.82,180.3,476.25,180.3Zm0,0a9.45,9.45,0,0,0-1.68.14,8.64,8.64,0,0,0-6,4.39c-5.3,8.69,2.61,17.6,5.71,20.6l13.35-20.8C485.6,183.22,480.82,180.3,476.25,180.3Zm0,0a9.45,9.45,0,0,0-1.68.14,8.64,8.64,0,0,0-6,4.39c-5.3,8.69,2.61,17.6,5.71,20.6l13.35-20.8C485.6,183.22,480.82,180.3,476.25,180.3Zm0,0a9.45,9.45,0,0,0-1.68.14,8.64,8.64,0,0,0-6,4.39c-5.3,8.69,2.61,17.6,5.71,20.6l13.35-20.8C485.6,183.22,480.82,180.3,476.25,180.3Zm0,0a9.45,9.45,0,0,0-1.68.14,8.64,8.64,0,0,0-6,4.39c-5.3,8.69,2.61,17.6,5.71,20.6l13.35-20.8C485.6,183.22,480.82,180.3,476.25,180.3Zm0,0a9.45,9.45,0,0,0-1.68.14,8.64,8.64,0,0,0-6,4.39c-5.3,8.69,2.61,17.6,5.71,20.6l13.35-20.8C485.6,183.22,480.82,180.3,476.25,180.3Zm0,0a9.45,9.45,0,0,0-1.68.14,8.64,8.64,0,0,0-6,4.39c-5.3,8.69,2.61,17.6,5.71,20.6l13.35-20.8C485.6,183.22,480.82,180.3,476.25,180.3Zm0,0a9.45,9.45,0,0,0-1.68.14,8.64,8.64,0,0,0-6,4.39c-5.3,8.69,2.61,17.6,5.71,20.6l13.35-20.8C485.6,183.22,480.82,180.3,476.25,180.3Zm0,0a9.45,9.45,0,0,0-1.68.14,8.64,8.64,0,0,0-6,4.39c-5.3,8.69,2.61,17.6,5.71,20.6l13.35-20.8C485.6,183.22,480.82,180.3,476.25,180.3Zm0,0a9.45,9.45,0,0,0-1.68.14,8.64,8.64,0,0,0-6,4.39c-5.3,8.69,2.61,17.6,5.71,20.6l13.35-20.8C485.6,183.22,480.82,180.3,476.25,180.3Zm0,0a9.45,9.45,0,0,0-1.68.14,8.64,8.64,0,0,0-6,4.39c-5.3,8.69,2.61,17.6,5.71,20.6l13.35-20.8C485.6,183.22,480.82,180.3,476.25,180.3Zm0,0a9.45,9.45,0,0,0-1.68.14,8.64,8.64,0,0,0-6,4.39c-5.3,8.69,2.61,17.6,5.71,20.6l13.35-20.8C485.6,183.22,480.82,180.3,476.25,180.3Zm0,0a9.45,9.45,0,0,0-1.68.14,8.64,8.64,0,0,0-6,4.39c-5.3,8.69,2.61,17.6,5.71,20.6l13.35-20.8C485.6,183.22,480.82,180.3,476.25,180.3Zm0,0a9.45,9.45,0,0,0-1.68.14,8.64,8.64,0,0,0-6,4.39c-5.3,8.69,2.61,17.6,5.71,20.6l13.35-20.8C485.6,183.22,480.82,180.3,476.25,180.3Zm0,0a9.45,9.45,0,0,0-1.68.14,8.64,8.64,0,0,0-6,4.39c-5.3,8.69,2.61,17.6,5.71,20.6l13.35-20.8C485.6,183.22,480.82,180.3,476.25,180.3Zm0,0a9.45,9.45,0,0,0-1.68.14,8.64,8.64,0,0,0-6,4.39c-5.3,8.69,2.61,17.6,5.71,20.6l13.35-20.8C485.6,183.22,480.82,180.3,476.25,180.3Zm0,0a9.45,9.45,0,0,0-1.68.14,8.64,8.64,0,0,0-6,4.39c-5.3,8.69,2.61,17.6,5.71,20.6l13.35-20.8C485.6,183.22,480.82,180.3,476.25,180.3Zm0,0a9.45,9.45,0,0,0-1.68.14,8.64,8.64,0,0,0-6,4.39c-5.3,8.69,2.61,17.6,5.71,20.6l13.35-20.8C485.6,183.22,480.82,180.3,476.25,180.3Zm0,0a9.45,9.45,0,0,0-1.68.14,8.64,8.64,0,0,0-6,4.39c-5.3,8.69,2.61,17.6,5.71,20.6l13.35-20.8C485.6,183.22,480.82,180.3,476.25,180.3Zm0,0a9.45,9.45,0,0,0-1.68.14,8.64,8.64,0,0,0-6,4.39c-5.3,8.69,2.61,17.6,5.71,20.6l13.35-20.8C485.6,183.22,480.82,180.3,476.25,180.3Zm0,0a9.45,9.45,0,0,0-1.68.14,8.64,8.64,0,0,0-6,4.39c-5.3,8.69,2.61,17.6,5.71,20.6l13.35-20.8C485.6,183.22,480.82,180.3,476.25,180.3Zm0,0a9.45,9.45,0,0,0-1.68.14,8.64,8.64,0,0,0-6,4.39c-5.3,8.69,2.61,17.6,5.71,20.6l13.35-20.8C485.6,183.22,480.82,180.3,476.25,180.3Zm0,0a9.45,9.45,0,0,0-1.68.14,8.64,8.64,0,0,0-6,4.39c-5.3,8.69,2.61,17.6,5.71,20.6l13.35-20.8C485.6,183.22,480.82,180.3,476.25,180.3Zm0,0a9.45,9.45,0,0,0-1.68.14,8.64,8.64,0,0,0-6,4.39c-5.3,8.69,2.61,17.6,5.71,20.6l13.35-20.8C485.6,183.22,480.82,180.3,476.25,180.3Zm0,0a9.45,9.45,0,0,0-1.68.14,8.64,8.64,0,0,0-6,4.39c-5.3,8.69,2.61,17.6,5.71,20.6l13.35-20.8C485.6,183.22,480.82,180.3,476.25,180.3ZM377.4,271h-.19c.08.23.17.44.25.67Zm98.85-90.7a9.45,9.45,0,0,0-1.68.14,8.64,8.64,0,0,0-6,4.39c-5.3,8.69,2.61,17.6,5.71,20.6l13.35-20.8C485.6,183.22,480.82,180.3,476.25,180.3Zm0,0a9.45,9.45,0,0,0-1.68.14,8.64,8.64,0,0,0-6,4.39c-5.3,8.69,2.61,17.6,5.71,20.6l13.35-20.8C485.6,183.22,480.82,180.3,476.25,180.3Zm0,0a9.45,9.45,0,0,0-1.68.14,8.64,8.64,0,0,0-6,4.39c-5.3,8.69,2.61,17.6,5.71,20.6l13.35-20.8C485.6,183.22,480.82,180.3,476.25,180.3Zm0,0a9.45,9.45,0,0,0-1.68.14,8.64,8.64,0,0,0-6,4.39c-5.3,8.69,2.61,17.6,5.71,20.6l13.35-20.8C485.6,183.22,480.82,180.3,476.25,180.3Zm0,0a9.45,9.45,0,0,0-1.68.14,8.64,8.64,0,0,0-6,4.39c-5.3,8.69,2.61,17.6,5.71,20.6l13.35-20.8C485.6,183.22,480.82,180.3,476.25,180.3Zm0,0a9.45,9.45,0,0,0-1.68.14,8.64,8.64,0,0,0-6,4.39c-5.3,8.69,2.61,17.6,5.71,20.6l13.35-20.8C485.6,183.22,480.82,180.3,476.25,180.3ZM579.4,220.72c-.07-.23-.15-.47-.24-.7s-.06-.2-.1-.3l0-.07s0-.05,0-.06c-.16-.43-.34-.86-.54-1.27-.08-.19-.16-.37-.25-.54l-.18-.34a20.58,20.58,0,0,0-8.7-8.73l-.12-.06h0l-.66-.35c-1.42,3.08-4.69,11.44-1.75,18.3,1.82,4.23,5.75,7.26,11.7,9A22.45,22.45,0,0,0,579.4,220.72ZM476.25,180.3a9.45,9.45,0,0,0-1.68.14,8.64,8.64,0,0,0-6,4.39c-5.3,8.69,2.61,17.6,5.71,20.6l13.35-20.8C485.6,183.22,480.82,180.3,476.25,180.3Zm0,0a9.45,9.45,0,0,0-1.68.14,8.64,8.64,0,0,0-6,4.39c-5.3,8.69,2.61,17.6,5.71,20.6l13.35-20.8C485.6,183.22,480.82,180.3,476.25,180.3Z"/><path class="cls-4" d="M577.22,238.12,561.41,268.2a17.81,17.81,0,0,1-24.07,7.5l-32.66-17.12h0l-11.13-34.32,17.6-29.78,22.43-4.55h0L566.06,207c-1.59,3.35-5.28,12.63-1.84,20.67C566.33,232.58,570.7,236.1,577.22,238.12Z"/><path d="M116.07,327.55a35.46,35.46,0,0,0-6.09,6.24,41.88,41.88,0,0,1,9.67-8.75A36.23,36.23,0,0,0,116.07,327.55ZM102.63,351.3a42.5,42.5,0,0,1,3.09-10.48A33.09,33.09,0,0,0,102.63,351.3Zm0,0a42.5,42.5,0,0,1,3.09-10.48A33.09,33.09,0,0,0,102.63,351.3Zm13.44-23.75a35.46,35.46,0,0,0-6.09,6.24,41.88,41.88,0,0,1,9.67-8.75A36.23,36.23,0,0,0,116.07,327.55Z"/><path d="M468,452.58l0,0,.16.29Zm0,0,0,0,.16.29Zm0,0,0,0,.16.29ZM177.14,296l-1.31.58-1.31.56c0,.21.07.41.11.61l1.36-.25.21,0,1.17-.22C177.29,296.84,177.22,296.43,177.14,296Zm-41.65,18.06-10.26,4.44-.09.05a76,76,0,0,0-6.89,4.09,102.82,102.82,0,0,1,12.21-6.33l5-2.24Zm-31,23c-.08.15-.16.29-.23.44.07-.15.16-.29.24-.44ZM535.67,187.87,534,187h0l-4.32.88,1.94,1,1.94,1h0l2-.41.31-.07.25-.18.9-.69Zm47.11,35.06a25.38,25.38,0,0,1-1.16,12.31A23,23,0,0,0,582.78,222.93Zm-.12-.62a1.88,1.88,0,0,0-.06-.31c.06.27.1.53.15.78C582.73,222.63,582.69,222.47,582.66,222.31ZM571,206.46a26.49,26.49,0,0,1,9,8.87A23.27,23.27,0,0,0,571,206.46Zm-2.47,1.81v0l.66.35ZM468,452.58l0,0,.16.29Z"/><path d="M581.51,218.36q-.24-.6-.51-1.17c.13.27.26.56.38.85C581.42,218.15,581.46,218.25,581.51,218.36Z"/><polygon class="cls-4" points="468.13 452.85 467.97 452.56 468 452.58 468.13 452.85"/><path class="cls-2" d="M578.48,235.61c-6-1.76-9.88-4.79-11.7-9-2.94-6.86.33-15.22,1.75-18.3v0l.65.37h0l.12.06a20.58,20.58,0,0,1,8.7,8.73l.18.34c.09.17.17.35.25.54a10.31,10.31,0,0,1,.54,1.27s0,0,0,.06l0,.07c0,.1.07.2.1.3s.17.47.24.7A22.45,22.45,0,0,1,578.48,235.61Z"/><path d="M581.67,218.75a1.23,1.23,0,0,0-.14-.31c.12.28.24.59.34.89C581.81,219.14,581.75,219,581.67,218.75Zm-.29-.71c-.12-.29-.25-.58-.38-.85q.27.57.51,1.17C581.46,218.25,581.42,218.15,581.38,218Zm-12-9.33-.12-.06a23.65,23.65,0,0,1,8.82,8.79A20.58,20.58,0,0,0,569.33,208.71Zm-.8-3.57,2.1,1.11A17.27,17.27,0,0,0,568.53,205.14Z"/><path class="cls-1" d="M66.89,294.17c18.87,23.79,33.3,41.93,36.23,45.61l-.32.71c-.12.25-.23.5-.32.74s-.29.71-.43,1-.19.5-.27.75a1.72,1.72,0,0,0-.1.26c-.11.31-.21.6-.3.89s-.21.64-.31,1l-.09.33c-.06.23-.12.44-.18.64-.16.61-.3,1.17-.41,1.69-7.6-9.87-35.27-45.69-48.35-60.47l-1.51-1.69c-13.77-15.54-32.65-36.81-34.1-64.25-1.61-30.13,16.81-48.26,59.7-58.8a695.5,695.5,0,0,1,68.43-13.41,9.18,9.18,0,0,1,1.17-.07,7.32,7.32,0,0,1,1.41.12h0a5.67,5.67,0,0,1,.69.15,4.91,4.91,0,0,1,.68.22,6.74,6.74,0,0,1,1.19.55c.2.11.39.24.58.37s.36.28.54.44a8.15,8.15,0,0,1,2.66,5.37A251.15,251.15,0,0,0,90.62,165c-21.44,6-45.31,13.74-57.14,30.14-10.2,14.15-11.71,27.66-4.87,43.81,6.34,15,19.55,31.64,36.29,52.73Z"/><path class="cls-1" d="M104,338.05c0,.12-.12.25-.17.37h0Z"/><path class="cls-1" d="M149.27,184.78c-11.09,6-30.06,8.1-42.27,7.07a35.28,35.28,0,0,1-14.78-4.67l-.12-.06c-10.54-5.51-18.38-4.47-19.16-4.35-1.24.13-15.89,2.08-21.1,20.8-3.87,14,.89,28,15.47,45.44,21.79,26.13,37.94,41.58,68.18,65.05h0l-5,2.24a102.82,102.82,0,0,0-12.21,6.33,44.83,44.83,0,0,0-11.31,10.61c-.16.21-.3.43-.45.65-.61.89-1.23,1.87-1.83,2.93l-.14.25c-.08.15-.17.29-.24.44.07-.15.15-.29.23-.44-4.16-5.25-17.88-22.49-35.44-44.63l-2-2.51C33.79,248,15.46,224.88,35.73,196.76c11.3-15.68,34.65-23.23,55.64-29.09a247.33,247.33,0,0,1,62.83-8.55C155.38,168.32,155.76,181.29,149.27,184.78Z"/><path d="M145.73,149.11a8.21,8.21,0,0,1,1.41.12A7.32,7.32,0,0,0,145.73,149.11Zm4.16-.43-.08,0a7.67,7.67,0,0,1,.7.36C150.3,148.89,150.1,148.78,149.89,148.68ZM114.31,325.4a37.89,37.89,0,0,0-7.37,7.85,44.83,44.83,0,0,1,11.31-10.61A39,39,0,0,0,114.31,325.4ZM126.39,321a71.47,71.47,0,0,0-6.64,4,100.54,100.54,0,0,1,11.84-6.13l1.35-.6.78-.35,2.84-1.26Zm-12.08,4.37a37.89,37.89,0,0,0-7.37,7.85,44.83,44.83,0,0,1,11.31-10.61A39,39,0,0,0,114.31,325.4Zm-7,12.44c-.15.26-.31.52-.45.79s-.29.53-.43.8l0,.1c.43-.83.87-1.6,1.31-2.33.3-.49.6-.95.89-1.4A20.29,20.29,0,0,0,107.27,337.84Zm-3.47.57h0c.05-.12.12-.25.17-.37Zm-1.19,13c-.17,1-.35,2.08-.54,3.14l.27.35.29-3.58S102.62,351.4,102.61,351.43Z"/><path d="M149.41,148.47l.4.18.08,0A5,5,0,0,0,149.41,148.47Z"/><path class="cls-3" d="M150.51,149a7.67,7.67,0,0,0-.7-.36l-.4-.18a5,5,0,0,1,.48.21C150.1,148.78,150.3,148.89,150.51,149Z"/><path d="M615.53,520.43a37.06,37.06,0,0,0-26.38-10.92H570.72L493.65,337.62l20.57-30.37A21.5,21.5,0,0,0,516.31,287l-10-24.42L536,278.16a20.62,20.62,0,0,0,27.84-8.67l16.59-31.55h0c0-.05.11-.21.23-.48l.14-.29c0-.12.11-.25.16-.38l.19-.46a.47.47,0,0,0,0-.1c.06-.16.14-.33.19-.49l0-.1.14-.39a25.38,25.38,0,0,0,1.16-12.31l0-.15c0-.25-.09-.51-.15-.78-.13-.63-.29-1.27-.49-1.92l-.24-.75c-.1-.3-.22-.61-.34-.89a.24.24,0,0,1,0-.08q-.24-.6-.51-1.17a7.51,7.51,0,0,0-.36-.76c-.18-.38-.39-.74-.6-1.1a26.49,26.49,0,0,0-9-8.87l-.1-.06-.28-.15-2.1-1.11-.06,0L537,188.58l-.9.69-.25.18-.31.07-2,.41L566.06,207c-1.59,3.35-5.28,12.63-1.84,20.67,2.11,4.91,6.48,8.43,13,10.45L561.41,268.2a17.81,17.81,0,0,1-24.07,7.5l-32.66-17.12h0l-11.13-34.32,17.6-29.78,22.43-4.55-1.94-1-1.94-1L509.37,192,490.5,223.93,502,259.38h0l.19.57,1.11,2.71h0L513.74,288a18.67,18.67,0,0,1-1.82,17.65l-19.6,28.95h0l-1.35,2h-.81v0c-.73,0-1.69,0-2.8,0h-3.19l-7.34.11-3.12-.22-.48,0-.33,0-.86-.06-1.35-.1-8.13-.58c-5.32-.52-21.27-3.58-26.53-6.5-6.48-3.58-12.06-8.24-21.35-17.8l-23.59-23.58A47.25,47.25,0,0,1,380.17,271c-.34-.92-.66-1.85-.95-2.79a48,48,0,0,1-2.06-13.92V205.16a47.29,47.29,0,0,1,13.93-33.64l34.75-34.74a47.25,47.25,0,0,1,33.64-13.93H508.6a47.24,47.24,0,0,1,33.61,13.9c.11.11,10.1,10.91,8.9,24.72-.79,9.22-6.31,17.76-16.4,25.39L534,187l1.65.87,1.36.71c10.34-8,16-17.05,16.86-26.89,1.28-15.08-9.21-26.37-9.68-26.88a50.07,50.07,0,0,0-35.61-14.74H459.48a50.05,50.05,0,0,0-35.61,14.74l-34.75,34.75a50,50,0,0,0-14.74,35.6v61.27c0,.6,0,1.19,0,1.78H354.5c-29.35-22.1-73.72-78.58-75.64-115.3a34.59,34.59,0,0,0,29-.65,34.88,34.88,0,0,0,5.9-3.68,5.12,5.12,0,0,0-1.19-8.81L280.1,126.65l-13.39-5.74c14.41-7.71,30-6.54,43.42-4.3,29,4.81,42.26,15.72,63.78,37.77a3.05,3.05,0,0,0,2.21,1,3.16,3.16,0,0,0,1.55-.41,4.49,4.49,0,0,0,2.09-4.92,79.16,79.16,0,0,0-2.79-9.29l.1.08c3.26,2.35,6.71,4.86,10.45,7.51a3.89,3.89,0,0,0,2.3.74,4.09,4.09,0,0,0,2.34-.75,4.16,4.16,0,0,0,1.66-4.56c-12.69-45.56-64.32-62-104.62-62.29-.34,0-.66,0-1,0a159,159,0,0,0-24.36,1.86c-4.61.7-9.27,1.64-13.84,2.78a219.35,219.35,0,0,0-35.85,12.14c-13-5.36-26.78-10.64-31.11-10.64-5.79,0-9.76,12.33-11.81,36.65a15.51,15.51,0,0,0,1.21,7.57l.18.39.13.09h0a45.55,45.55,0,0,1-4.61,44.49,1.39,1.39,0,0,0,1.13,2.2.75.75,0,0,0,.21,0c14.76-2.19,26.41-12,33.79-28.44L223.2,162.4a109.92,109.92,0,0,0-52.28,93.34,253.16,253.16,0,0,0,3.6,41.4l1.31-.56,1.31-.58a252.13,252.13,0,0,1-3.44-40.26,107.13,107.13,0,0,1,52.9-92.14l2-1.19-53.81-32.14a12.75,12.75,0,0,1-.82-5.8c2-23.57,6-34.11,9-34.11,3.83,0,17.26,5.14,30.55,10.66l.37.15c3.86,1.61,7.69,3.24,11.26,4.79s7.12,3.1,10,4.39l.84.37.4.18,6.43,2.76L258,120.21l21,9,32.53,13.13a2.31,2.31,0,0,1,1.44,1.84,2.35,2.35,0,0,1-.9,2.18A32,32,0,0,1,292.69,153a31.34,31.34,0,0,1-13.35-2.94c-.44-.19-.87-.42-1.3-.64l-2-1.08v2.3c0,.35,0,.69,0,1,.91,38.84,47.51,95.16,74,116.56H271A142.35,142.35,0,0,0,214,280l-36.89,16c.08.43.15.84.23,1.25l-1.17.22-.21,0-1.36.25c0-.2-.07-.4-.11-.61L138.4,312.8c-30.83-23.86-47-39.28-68.95-65.57-13.94-16.7-18.54-29.93-14.93-42.9,4.88-17.52,18.15-18.75,18.7-18.79l.14,0c.07,0,7.45-1.15,17.4,4a37.69,37.69,0,0,0,16,5.06c10.45.89,30.75-.35,43.81-7.39,8.36-4.5,7.83-19.74,5.9-31.73a10.64,10.64,0,0,0-3.17-6l-.31-.31a2.1,2.1,0,0,0-.27-.24,11,11,0,0,0-6.53-2.59,11.45,11.45,0,0,0-2,.1,695.2,695.2,0,0,0-68.71,13.46C31.63,170.66,12,190.24,13.64,221.53c1.51,28.41,20.76,50.11,34.82,66l1.5,1.69c14.26,16.11,46,57.43,49.81,62.39C95.83,375,89,405.51,78.42,419.37c-14.49,19.07-44.11,49.45-52.84,58.31A12.46,12.46,0,0,0,22,486.49v56.06a12.57,12.57,0,0,0,12.55,12.56h90.12a6,6,0,0,0,6-6,38.22,38.22,0,0,0-38.23-38.22H81.3c1.4-4.83,7-18.83,25.3-24,19.41-5.44,43.3-16.2,50.26-19.41v73.93a13.68,13.68,0,0,0,13.66,13.67h85.37A10.11,10.11,0,0,0,266,545a32.07,32.07,0,0,0-32-32H214.19V502.38a18.53,18.53,0,0,1,5.21-12.89l24-24.86a21.23,21.23,0,0,0,6-14.82V424.59H362V543.82a14.75,14.75,0,0,0,14.74,14.74H454.5a13.83,13.83,0,0,0,13.82-13.83,33.19,33.19,0,0,0-33.15-33.15H417.22V493.2l20.95-54.33,27.69,15.69,43.53,90.34a16.58,16.58,0,0,0,15.33,10.21h93.44a8.3,8.3,0,0,0,8.29-8.3A37,37,0,0,0,615.53,520.43ZM566.78,226.59c-2.94-6.86.33-15.22,1.75-18.3v0l.65.37h0l.12.06a20.58,20.58,0,0,1,8.7,8.73l.18.34a4.45,4.45,0,0,1,.25.54,10.31,10.31,0,0,1,.54,1.27s0,0,0,.06l0,.07c0,.1.07.2.1.3s.17.47.24.7a22.45,22.45,0,0,1-.92,14.89C572.53,233.85,568.6,230.82,566.78,226.59Zm-365.9-77.5c-4.66,10.48-13.3,22.86-28.62,26.5a48.55,48.55,0,0,0,4.4-41Zm27.45-44.74-10.66-4.61h.05a214.17,214.17,0,0,1,32.95-11c4.49-1.13,9.06-2,13.6-2.74a158.47,158.47,0,0,1,23.93-1.82c.28,0,.57,0,.92,0,39.4.25,89.75,16.18,102,60.25a1.42,1.42,0,0,1-.58,1.55,1.23,1.23,0,0,1-1.43,0c-3.72-2.66-7.18-5.16-10.43-7.51l-3.74-2.7a75.54,75.54,0,0,0-29.53-33.26c-15.22-9.47-34.41-14.76-54-14.91l-.87,0A113.89,113.89,0,0,0,270,89.53a110.31,110.31,0,0,0-11.7,2.78,166.24,166.24,0,0,0-29.91,12Zm33.51,14.32-1.66-.71-1.6-.67a.56.56,0,0,0-.13.07l-18.32-7.85-.36-.17-.19-.08-.32-.14-.14-.07-7.58-3.2.12-.06.06,0A160.79,160.79,0,0,1,259.1,95a110.63,110.63,0,0,1,11.42-2.72,112,112,0,0,1,20.07-1.81h.79c28,.22,62.69,11.69,78.87,42,.47.87.93,1.76,1.35,2.67h0c.42.84.81,1.69,1.18,2.56A76.19,76.19,0,0,1,377,150.66a1.7,1.7,0,0,1-.7,1.84.31.31,0,0,1-.45-.06C354,130,340.35,118.81,310.6,113.87a110.3,110.3,0,0,0-18.15-1.73c-9.51,0-19.37,1.76-28.79,7.3ZM389.12,289.89l23.58,23.57c9.48,9.77,15.23,14.56,22,18.29,5.92,3.27,22.25,6.32,27.65,6.83l9.44.67h.12l.82.07h.39c2.68.16,6.91.18,10.67.15h1.77l1.83,0,2,0h.33l1.13,0,2,4.87-6.49.3-14.18.22-13.6-1c-5.07-.48-20.27-3.39-25.28-6.15-6.18-3.42-11.5-7.84-20.35-16.91l-22.49-22.41a44.77,44.77,0,0,1-13-26.63A50.46,50.46,0,0,0,389.12,289.89ZM377.4,271l.06.67c-.08-.23-.17-.44-.25-.67ZM154.2,159.12c1.18,9.2,1.56,22.17-4.93,25.66-11.09,6-30.06,8.1-42.27,7.07a35.28,35.28,0,0,1-14.78-4.67l-.12-.06c-10.54-5.51-18.38-4.47-19.16-4.35-1.24.13-15.89,2.08-21.1,20.8-3.87,14,.89,28,15.47,45.44,21.79,26.13,37.94,41.58,68.18,65.05h0l-5,2.24a102.82,102.82,0,0,0-12.21,6.33,44.83,44.83,0,0,0-11.31,10.61c-.16.21-.3.43-.45.65-.61.89-1.23,1.87-1.83,2.93l-.14.25c-.08.15-.17.29-.24.44.07-.15.15-.29.23-.44-4.16-5.25-17.88-22.49-35.44-44.63l-2-2.51C33.79,248,15.46,224.88,35.73,196.76c11.3-15.68,34.65-23.23,55.64-29.09A247.33,247.33,0,0,1,154.2,159.12ZM104,338.05c0,.12-.12.25-.17.37h0Zm45.9-189.37c.21.1.41.21.62.33a7.67,7.67,0,0,0-.7-.36ZM52,287.33l-1.51-1.69c-13.77-15.54-32.65-36.81-34.1-64.25-1.61-30.13,16.81-48.26,59.7-58.8a695.5,695.5,0,0,1,68.43-13.41,9.18,9.18,0,0,1,1.17-.07,7.32,7.32,0,0,1,1.41.12h0a5.67,5.67,0,0,1,.69.15,4.91,4.91,0,0,1,.68.22,6.74,6.74,0,0,1,1.19.55c.2.11.39.24.58.37s.36.28.54.44a8.15,8.15,0,0,1,2.66,5.37A251.15,251.15,0,0,0,90.62,165c-21.44,6-45.31,13.74-57.14,30.14-10.2,14.15-11.71,27.66-4.87,43.81,6.34,15,19.55,31.64,36.29,52.73l2,2.5c18.87,23.79,33.3,41.93,36.23,45.61l-.32.71c-.12.25-.23.5-.32.74s-.29.71-.43,1-.19.5-.27.75a1.72,1.72,0,0,0-.1.26c-.11.31-.21.6-.3.89s-.21.64-.31,1l-.09.33c-.06.23-.12.44-.18.64-.16.61-.3,1.17-.41,1.69C92.79,337.93,65.12,302.11,52,287.33Zm362.4,205.35v21.68h20.73a30.41,30.41,0,0,1,30.37,30.37,11.06,11.06,0,0,1-11,11H376.69a12,12,0,0,1-12-12v-122H246.63v28a18.49,18.49,0,0,1-5.21,12.89l-24,24.87a21.19,21.19,0,0,0-6,14.81v13.36h22.53A29.3,29.3,0,0,1,263.2,545a7.32,7.32,0,0,1-7.31,7.33H170.52a10.91,10.91,0,0,1-10.88-10.89V466.11l115.71-69.83H363l72.75,41.2Zm203.72,59.65H524.72a13.84,13.84,0,0,1-12.8-8.57L468.18,453l0-.07,0,0-.16-.29L463.36,450l-24.18-13.7L364,393.68l-.32-.18H274.57l-117,70.6-.09,0c-2.29,1.06-29.86,14-51.64,20.1C82.27,490.85,78.2,511.82,78.15,512l-.29,1.64H92.41a35.46,35.46,0,0,1,35.45,35.44,3.23,3.23,0,0,1-3.22,3.22H34.52a9.79,9.79,0,0,1-9.77-9.78V486.49a9.72,9.72,0,0,1,2.81-6.86c11.23-11.39,38.88-39.9,53.07-58.58,10.5-13.8,17.39-43.14,21.44-66.48.19-1.06.37-2.11.54-3.14,0,0,0-.06,0-.09v0a33.09,33.09,0,0,1,3.09-10.48,5.25,5.25,0,0,1,.28-.59l0-.12c.09-.19.19-.39.3-.58l0-.1c.14-.27.27-.54.43-.8a7,7,0,0,1,.45-.79,20.29,20.29,0,0,1,1.28-2l0,0s0,0,0-.05c.28-.42.56-.81.83-1.19.13-.19.28-.4.44-.59l.1-.14a35.46,35.46,0,0,1,6.09-6.24,36.23,36.23,0,0,1,3.58-2.51l.1-.06a71.47,71.47,0,0,1,6.64-4l10.17-4.39,1.93-.84.26-.12.86-.38,43.76-19,31.78-13.76A139.44,139.44,0,0,1,271,271H374.6a47.42,47.42,0,0,0,13.87,29.31l22.47,22.4c9.05,9.28,14.54,13.83,21,17.39,5.66,3.12,21.24,6,26.4,6.49l13.69,1h.07l14.33-.21,8.39-.39,74.12,165.32h20.23a34.5,34.5,0,0,1,34.52,34.52A5.52,5.52,0,0,1,618.16,552.33Z"/><path class="cls-3" d="M376.34,152.5a.31.31,0,0,1-.45-.06C354,130,340.35,118.81,310.6,113.87a110.3,110.3,0,0,0-18.15-1.73c-9.51,0-19.37,1.76-28.79,7.3l-1.82-.77-1.66-.71-1.6-.67L244,111.11l-7.1-3.06-1.11-.49c-1.17-.53-2.54-1.13-4.06-1.8A160.79,160.79,0,0,1,259.1,95a110.63,110.63,0,0,1,11.42-2.72,112,112,0,0,1,20.07-1.81h.79c28,.22,62.69,11.69,78.87,42,.47.87.93,1.76,1.35,2.67h0c.42.84.81,1.69,1.18,2.56A76.19,76.19,0,0,1,377,150.66,1.7,1.7,0,0,1,376.34,152.5Z"/><path class="cls-4" d="M623.67,546.81a5.52,5.52,0,0,1-5.51,5.52H524.72a13.84,13.84,0,0,1-12.8-8.57L468.18,453l0-.07,0,0-.13-.27,0,0L463.36,450l-24.18-13.7-67.7-38.36L364,393.68l-.32-.18H274.57l-117,70.6-.09,0c-2.29,1.06-29.86,14-51.64,20.1C82.27,490.85,78.2,511.82,78.15,512l-.29,1.64H92.41a35.46,35.46,0,0,1,35.45,35.44,3.23,3.23,0,0,1-3.22,3.22H34.52a9.79,9.79,0,0,1-9.77-9.78V486.49a9.72,9.72,0,0,1,2.81-6.86c11.23-11.39,38.88-39.9,53.07-58.58,10.5-13.8,17.39-43.14,21.44-66.48l.27.35.29-3.58v0a42.5,42.5,0,0,1,3.09-10.48,5.25,5.25,0,0,1,.28-.59l0-.12.3-.58c.43-.83.87-1.6,1.31-2.33.3-.49.6-.95.89-1.4l0,0s0,0,0-.05c.28-.42.56-.81.83-1.19.14-.2.29-.4.44-.59l.1-.14a41.88,41.88,0,0,1,9.67-8.75l.1-.06a100.54,100.54,0,0,1,11.84-6.13l1.35-.6.78-.35,2.84-1.26,1.93-.84.26-.12.86-.38,43.76-19,31.78-13.76A139.44,139.44,0,0,1,271,271H374.6a47.42,47.42,0,0,0,13.87,29.31l22.47,22.4c9.05,9.28,14.54,13.83,21,17.39,5.66,3.12,21.24,6,26.4,6.49l13.69,1h.07l14.33-.21,8.39-.39,74.12,165.32h20.23a34.5,34.5,0,0,1,34.52,34.52Z"/><path class="cls-3" d="M66.89,294.17c18.87,23.79,33.3,41.93,36.23,45.61l-.32.71c-.12.25-.23.5-.32.74s-.29.71-.43,1-.19.5-.27.75a1.72,1.72,0,0,0-.1.26c-.11.31-.21.6-.3.89s-.21.64-.31,1l-.09.33c-.06.23-.12.44-.18.64-.16.61-.3,1.17-.41,1.69-7.6-9.87-35.27-45.69-48.35-60.47l-1.51-1.69c-13.77-15.54-32.65-36.81-34.1-64.25-1.61-30.13,16.81-48.26,59.7-58.8a695.5,695.5,0,0,1,68.43-13.41,9.18,9.18,0,0,1,1.17-.07,7.32,7.32,0,0,1,1.41.12h0a5.67,5.67,0,0,1,.69.15,4.91,4.91,0,0,1,.68.22,6.74,6.74,0,0,1,1.19.55c.2.11.39.24.58.37s.36.28.54.44a8.15,8.15,0,0,1,2.66,5.37A251.15,251.15,0,0,0,90.62,165c-21.44,6-45.31,13.74-57.14,30.14-10.2,14.15-11.71,27.66-4.87,43.81,6.34,15,19.55,31.64,36.29,52.73Z"/><path d="M149.89,148.68l-.08,0a7.67,7.67,0,0,1,.7.36C150.3,148.89,150.1,148.78,149.89,148.68Zm2.8.19a10.63,10.63,0,0,0-6.49-2.54,11,11,0,0,1,6.53,2.59ZM103.8,338.41h0c.05-.12.12-.25.17-.37Zm.71-1.33c-.08.15-.16.29-.23.44.07-.15.16-.29.24-.44Zm-1.9,14.35c-.17,1-.35,2.08-.54,3.14l.27.35.29-3.58S102.62,351.4,102.61,351.43Z"/><path class="cls-1" d="M377.46,271.67c-.08-.23-.17-.44-.25-.67h.19Z"/><path class="cls-1" d="M492.82,344.27l-6.49.3-14.18.22-13.6-1c-5.07-.48-20.27-3.39-25.28-6.15-6.18-3.42-11.5-7.84-20.35-16.91l-22.49-22.41a44.77,44.77,0,0,1-13-26.63,50.46,50.46,0,0,0,11.65,18.17l23.58,23.57c9.48,9.77,15.23,14.56,22,18.29,5.92,3.27,22.25,6.32,27.65,6.83l9.44.67h.12l.82.07h.39c2.68.16,6.91.18,10.67.15h1.77l1.83,0,2,0h.33l1.13,0Z"/><path d="M377.46,271.67c-.08-.23-.17-.44-.25-.67h.19Z"/><path d="M472.71,339.33l-.82-.07Z"/><path d="M484.17,336.71l-7.34.11-3.12-.22C476.41,336.73,480.55,336.74,484.17,336.71Z"/><path d="M377.4,271h-.19c.08.23.17.44.25.67Zm158.27-83.13L534,187h0l-4.32.88,1.94,1,1.94,1h0l2-.41.31-.07.25-.18.9-.69Zm-48.31,148.8c1.11,0,2.07,0,2.8,0v0Zm-14.26,2.67,3.59.26h.06l7-.11C480,339.52,475.78,339.5,473.1,339.34Z"/><path class="cls-2" d="M476.25,180.3c4.57,0,9.35,2.92,11.39,4.33l-13.35,20.8c-3.1-3-11-11.91-5.71-20.6a8.64,8.64,0,0,1,6-4.39A9.45,9.45,0,0,1,476.25,180.3Z"/><path class="cls-2" d="M473.71,336.6l3.12.22,7.34-.11C480.55,336.74,476.41,336.73,473.71,336.6Z"/><path class="cls-2" d="M542.21,136.75a47.24,47.24,0,0,0-33.61-13.9H459.48a47.25,47.25,0,0,0-33.64,13.93l-34.75,34.74a47.29,47.29,0,0,0-13.93,33.64v49.13a48,48,0,0,0,2.06,13.92c.29.94.61,1.87.95,2.79a47.25,47.25,0,0,0,10.92,16.93l23.59,23.58c9.29,9.56,14.87,14.22,21.35,17.8,5.26,2.92,21.21,6,26.53,6.5l8.13.58,1.35.1.86.06.33,0,.48,0c2.7.13,6.84.14,10.46.11h3.19l2.8-.05H491l1.35-2h0l19.6-28.95A18.67,18.67,0,0,0,513.74,288l-10.43-25.35h0L502.2,260l-.19-.57h0L490.5,223.93,509.37,192l20.32-4.11L534,187h0l.69-.14c10.09-7.63,15.61-16.17,16.4-25.39C552.31,147.66,542.32,136.86,542.21,136.75ZM474.9,209.62l-1.2-1c-.15-.12-15.23-12.58-7.49-25.27a11.33,11.33,0,0,1,7.89-5.68c7.66-1.35,15.93,5.22,16.29,5.5l1,.78Z"/><path d="M490.39,183.2c-.36-.28-8.63-6.85-16.29-5.5a11.33,11.33,0,0,0-7.89,5.68c-7.74,12.69,7.34,25.15,7.49,25.27l1.2,1L491.36,184Zm-16.1,22.23c-3.1-3-11-11.91-5.71-20.6a8.64,8.64,0,0,1,6-4.39,9.45,9.45,0,0,1,1.68-.14c4.57,0,9.35,2.92,11.39,4.33Z"/><path class="cls-3" d="M487.64,184.63l-13.35,20.8c-3.1-3-11-11.91-5.71-20.6a8.64,8.64,0,0,1,6-4.39,9.45,9.45,0,0,1,1.68-.14C480.82,180.3,485.6,183.22,487.64,184.63Z"/><path d="M552.88,207.79H540.53a1.39,1.39,0,1,1,0-2.78h12.35a1.39,1.39,0,1,1,0,2.78Z"/><path d="M133.24,168.49a1.39,1.39,0,0,1-.12-2.78l9.21-.77a1.39,1.39,0,0,1,.23,2.78l-9.21.76Z"/><path d="M255.74,126.62a1.45,1.45,0,0,1-.67-.17l-11.36-6.29a1.39,1.39,0,0,1,1.35-2.44L256.42,124a1.39,1.39,0,0,1-.68,2.61Z"/></g></svg>