<svg xmlns="http://www.w3.org/2000/svg" viewBox="0 0 32 32"><defs><style>.cls-1{fill:#cb4a25;}.cls-2{fill:#69163e;}.cls-3{fill:#dea630;}.cls-4{fill:#d16535;}</style></defs><g id="Option_A_Colors_1" data-name="Option A_Colors 1"><path class="cls-1" d="M23,26.75a.52.52,0,0,1-.15.38.51.51,0,0,1-.37.15H18.71a.57.57,0,0,1-.57-.57V20.87H12.49v1.34a.9.9,0,0,1-.25.62L11.09,24a1,1,0,0,0-.29.71v.64h1.08a1.4,1.4,0,0,1,1.4,1.4.31.31,0,0,1-.1.24.34.34,0,0,1-.25.11H8.85a.52.52,0,0,1-.52-.52V23l5.53-3.34h4.2l3.48,2-1,2.64v1h1A1.45,1.45,0,0,1,23,26.75Z"/><path d="M18.46,19.73l-.35-.2,3.59,2Z"/><path class="cls-2" d="M9.17,14.91H9.11v0l.06,0Z"/><path class="cls-2" d="M17.44,13.52H13.65a6.7,6.7,0,0,0-2.72.57l-1.77.76A12,12,0,0,1,9,12.93a5.12,5.12,0,0,1,2.53-4.41l.1-.06L9.05,6.92a.82.82,0,0,1,0-.28C9.11,5.52,9.3,5,9.45,5a8,8,0,0,1,1.46.51h0l.53.23.48.21,0,0h0l.31.14.75.31h0l1,.43,1.56.63a.13.13,0,0,1,.07.09.12.12,0,0,1-.05.1,1.58,1.58,0,0,1-.93.32,1.57,1.57,0,0,1-.64-.14l-.06,0-.1,0V7.9s0,0,0,0C13.94,9.8,16.17,12.5,17.44,13.52Z"/><path d="M9.17,14.91H9.11l-.07,0v0l.06,0,.06,0Z"/><path d="M11.62,5.68h0l-.51-.22h0Z"/><path d="M12.13,5.91l-.36-.16h0l.19.08,0,0Z"/><path d="M13.06,6.44h0l-.91-.39,0,0h0L12,6l.31.14Z"/><path class="cls-1" d="M13.06,6.3h0l-.87-.37h0l-.36-.16h0l.19.08,0,0,.34.14Z"/><path class="cls-1" d="M19.38,7.68s0,0-.07,0l-.5-.36-.18-.13A3.55,3.55,0,0,0,17.22,5.6a5,5,0,0,0-2.59-.72h0a5.33,5.33,0,0,0-1,.09l-.56.13a8.1,8.1,0,0,0-1.43.58h0l-.51-.22h0a9.62,9.62,0,0,1,1.57-.52c.22-.06.44-.1.65-.14a8.77,8.77,0,0,1,1.15-.08h0c1.89,0,4.3.77,4.88,2.88A.07.07,0,0,1,19.38,7.68Z"/><path d="M11.46,5.76l-.53-.23.53.23.48.21Zm.9.24L12,5.86l0,0-.2-.08h0l.36.16h0l.87.37Zm0,.13.72.31h0ZM12,5.86l.11,0h0l.2.08Z"/><path class="cls-3" d="M13.06,6.3h0l-.87-.37h0l-.36-.16h0l.19.08,0,0,.34.14Z"/><path d="M12,6h0l0,0-.48-.21h0l.61.26h0l.23.1Zm.36,0-.2-.08h0l.87.37h0Z"/><path class="cls-1" d="M10.3,7.82A2.08,2.08,0,0,1,8.93,9.09a2,2,0,0,0,.23-.52,2.25,2.25,0,0,0,.11-.68,2.43,2.43,0,0,0-.13-.76Z"/><path class="cls-4" d="M5.6,17.5l0,.15v0l0-.17Zm0,0a1.83,1.83,0,0,1,.15-.5A1.53,1.53,0,0,0,5.6,17.5Zm.22-.65,0,0s0,0,0,0h0l.06-.11Zm.42-.49a1.67,1.67,0,0,0-.29.3,2.09,2.09,0,0,1,.46-.42Zm.5-.31a1.93,1.93,0,0,0-.32.19c.15-.09.35-.2.56-.3l.07,0,0,0,.13-.06Zm11.72,3.68-.35-.2,3.59,2Zm5-10.41H23.4a.41.41,0,0,0-.29.21c-.25.42.12.84.27,1l.64-1A1.13,1.13,0,0,0,23.48,9.32Zm0,0H23.4a.41.41,0,0,0-.29.21c-.25.42.12.84.27,1l.64-1A1.13,1.13,0,0,0,23.48,9.32Zm0,0H23.4a.41.41,0,0,0-.29.21c-.25.42.12.84.27,1l.64-1A1.13,1.13,0,0,0,23.48,9.32Zm0,0H23.4a.41.41,0,0,0-.29.21c-.25.42.12.84.27,1l.64-1A1.13,1.13,0,0,0,23.48,9.32Zm0,0H23.4a.41.41,0,0,0-.29.21c-.25.42.12.84.27,1l.64-1A1.13,1.13,0,0,0,23.48,9.32Zm0,0H23.4a.41.41,0,0,0-.29.21c-.25.42.12.84.27,1l.64-1A1.13,1.13,0,0,0,23.48,9.32Zm0,0H23.4a.41.41,0,0,0-.29.21c-.25.42.12.84.27,1l.64-1A1.13,1.13,0,0,0,23.48,9.32Zm0,0H23.4a.41.41,0,0,0-.29.21c-.25.42.12.84.27,1l.64-1A1.13,1.13,0,0,0,23.48,9.32Zm0,0H23.4a.41.41,0,0,0-.29.21c-.25.42.12.84.27,1l.64-1A1.13,1.13,0,0,0,23.48,9.32Zm.69,7.61h-.91l-.45,0a5.11,5.11,0,0,1-1.32-.33,4.39,4.39,0,0,1-1-.87l-1.13-1.13a2.45,2.45,0,0,1-.56-.87A2.13,2.13,0,0,0,19.37,15L20.45,16a4.26,4.26,0,0,0,1,.81,4.84,4.84,0,0,0,1.21.29l.65.05H24l.31,0Zm-.69-7.61H23.4a.41.41,0,0,0-.29.21c-.25.42.12.84.27,1l.64-1A1.13,1.13,0,0,0,23.48,9.32Zm0,0H23.4a.41.41,0,0,0-.29.21c-.25.42.12.84.27,1l.64-1A1.13,1.13,0,0,0,23.48,9.32Zm0,0H23.4a.41.41,0,0,0-.29.21c-.25.42.12.84.27,1l.64-1A1.13,1.13,0,0,0,23.48,9.32Zm0,0H23.4a.41.41,0,0,0-.29.21c-.25.42.12.84.27,1l.64-1A1.13,1.13,0,0,0,23.48,9.32Zm0,0H23.4a.41.41,0,0,0-.29.21c-.25.42.12.84.27,1l.64-1A1.13,1.13,0,0,0,23.48,9.32Zm0,0H23.4a.41.41,0,0,0-.29.21c-.25.42.12.84.27,1l.64-1A1.13,1.13,0,0,0,23.48,9.32Zm0,0H23.4a.41.41,0,0,0-.29.21c-.25.42.12.84.27,1l.64-1A1.13,1.13,0,0,0,23.48,9.32Zm0,0H23.4a.41.41,0,0,0-.29.21c-.25.42.12.84.27,1l.64-1A1.13,1.13,0,0,0,23.48,9.32Zm0,0H23.4a.41.41,0,0,0-.29.21c-.25.42.12.84.27,1l.64-1A1.13,1.13,0,0,0,23.48,9.32Zm0,0H23.4a.41.41,0,0,0-.29.21c-.25.42.12.84.27,1l.64-1A1.13,1.13,0,0,0,23.48,9.32Zm0,0H23.4a.41.41,0,0,0-.29.21c-.25.42.12.84.27,1l.64-1A1.13,1.13,0,0,0,23.48,9.32Zm0,0H23.4a.41.41,0,0,0-.29.21c-.25.42.12.84.27,1l.64-1A1.13,1.13,0,0,0,23.48,9.32Zm0,0H23.4a.41.41,0,0,0-.29.21c-.25.42.12.84.27,1l.64-1A1.13,1.13,0,0,0,23.48,9.32Zm0,0H23.4a.41.41,0,0,0-.29.21c-.25.42.12.84.27,1l.64-1A1.13,1.13,0,0,0,23.48,9.32Zm0,0H23.4a.41.41,0,0,0-.29.21c-.25.42.12.84.27,1l.64-1A1.13,1.13,0,0,0,23.48,9.32Zm0,0H23.4a.41.41,0,0,0-.29.21c-.25.42.12.84.27,1l.64-1A1.13,1.13,0,0,0,23.48,9.32Zm0,0H23.4a.41.41,0,0,0-.29.21c-.25.42.12.84.27,1l.64-1A1.13,1.13,0,0,0,23.48,9.32Zm0,0H23.4a.41.41,0,0,0-.29.21c-.25.42.12.84.27,1l.64-1A1.13,1.13,0,0,0,23.48,9.32Zm0,0H23.4a.41.41,0,0,0-.29.21c-.25.42.12.84.27,1l.64-1A1.13,1.13,0,0,0,23.48,9.32Zm0,0H23.4a.41.41,0,0,0-.29.21c-.25.42.12.84.27,1l.64-1A1.13,1.13,0,0,0,23.48,9.32Zm0,0H23.4a.41.41,0,0,0-.29.21c-.25.42.12.84.27,1l.64-1A1.13,1.13,0,0,0,23.48,9.32Zm0,0H23.4a.41.41,0,0,0-.29.21c-.25.42.12.84.27,1l.64-1A1.13,1.13,0,0,0,23.48,9.32Zm0,0H23.4a.41.41,0,0,0-.29.21c-.25.42.12.84.27,1l.64-1A1.13,1.13,0,0,0,23.48,9.32Zm0,0H23.4a.41.41,0,0,0-.29.21c-.25.42.12.84.27,1l.64-1A1.13,1.13,0,0,0,23.48,9.32Zm0,0H23.4a.41.41,0,0,0-.29.21c-.25.42.12.84.27,1l.64-1A1.13,1.13,0,0,0,23.48,9.32Zm0,0H23.4a.41.41,0,0,0-.29.21c-.25.42.12.84.27,1l.64-1A1.13,1.13,0,0,0,23.48,9.32Zm0,0H23.4a.41.41,0,0,0-.29.21c-.25.42.12.84.27,1l.64-1A1.13,1.13,0,0,0,23.48,9.32Zm0,0H23.4a.41.41,0,0,0-.29.21c-.25.42.12.84.27,1l.64-1A1.13,1.13,0,0,0,23.48,9.32Zm0,0H23.4a.41.41,0,0,0-.29.21c-.25.42.12.84.27,1l.64-1A1.13,1.13,0,0,0,23.48,9.32Zm0,0H23.4a.41.41,0,0,0-.29.21c-.25.42.12.84.27,1l.64-1A1.13,1.13,0,0,0,23.48,9.32Zm0,0H23.4a.41.41,0,0,0-.29.21c-.25.42.12.84.27,1l.64-1A1.13,1.13,0,0,0,23.48,9.32ZM24,16.8h0Zm-.63-6.28.64-1a1.13,1.13,0,0,0-.54-.2H23.4a.41.41,0,0,0-.29.21C22.86,10,23.23,10.37,23.38,10.52Zm0,6.27h0Zm.12-7.47H23.4a.41.41,0,0,0-.29.21c-.25.42.12.84.27,1l.64-1A1.13,1.13,0,0,0,23.48,9.32Zm0,0H23.4a.41.41,0,0,0-.29.21c-.25.42.12.84.27,1l.64-1A1.13,1.13,0,0,0,23.48,9.32Zm0,0H23.4a.41.41,0,0,0-.29.21c-.25.42.12.84.27,1l.64-1A1.13,1.13,0,0,0,23.48,9.32Zm0,0H23.4a.41.41,0,0,0-.29.21c-.25.42.12.84.27,1l.64-1A1.13,1.13,0,0,0,23.48,9.32Zm0,0H23.4a.41.41,0,0,0-.29.21c-.25.42.12.84.27,1l.64-1A1.13,1.13,0,0,0,23.48,9.32Zm0,0H23.4a.41.41,0,0,0-.29.21c-.25.42.12.84.27,1l.64-1A1.13,1.13,0,0,0,23.48,9.32Zm0,0H23.4a.41.41,0,0,0-.29.21c-.25.42.12.84.27,1l.64-1A1.13,1.13,0,0,0,23.48,9.32Zm0,0H23.4a.41.41,0,0,0-.29.21c-.25.42.12.84.27,1l.64-1A1.13,1.13,0,0,0,23.48,9.32Zm0,0H23.4a.41.41,0,0,0-.29.21c-.25.42.12.84.27,1l.64-1A1.13,1.13,0,0,0,23.48,9.32Zm0,0H23.4a.41.41,0,0,0-.29.21c-.25.42.12.84.27,1l.64-1A1.13,1.13,0,0,0,23.48,9.32Zm0,0H23.4a.41.41,0,0,0-.29.21c-.25.42.12.84.27,1l.64-1A1.13,1.13,0,0,0,23.48,9.32Zm0,0H23.4a.41.41,0,0,0-.29.21c-.25.42.12.84.27,1l.64-1A1.13,1.13,0,0,0,23.48,9.32Zm0,0H23.4a.41.41,0,0,0-.29.21c-.25.42.12.84.27,1l.64-1A1.13,1.13,0,0,0,23.48,9.32Zm0,0H23.4a.41.41,0,0,0-.29.21c-.25.42.12.84.27,1l.64-1A1.13,1.13,0,0,0,23.48,9.32Zm0,0H23.4a.41.41,0,0,0-.29.21c-.25.42.12.84.27,1l.64-1A1.13,1.13,0,0,0,23.48,9.32Zm0,0H23.4a.41.41,0,0,0-.29.21c-.25.42.12.84.27,1l.64-1A1.13,1.13,0,0,0,23.48,9.32Zm0,0H23.4a.41.41,0,0,0-.29.21c-.25.42.12.84.27,1l.64-1A1.13,1.13,0,0,0,23.48,9.32Zm0,0H23.4a.41.41,0,0,0-.29.21c-.25.42.12.84.27,1l.64-1A1.13,1.13,0,0,0,23.48,9.32Zm0,0H23.4a.41.41,0,0,0-.29.21c-.25.42.12.84.27,1l.64-1A1.13,1.13,0,0,0,23.48,9.32Zm0,0H23.4a.41.41,0,0,0-.29.21c-.25.42.12.84.27,1l.64-1A1.13,1.13,0,0,0,23.48,9.32Zm0,0H23.4a.41.41,0,0,0-.29.21c-.25.42.12.84.27,1l.64-1A1.13,1.13,0,0,0,23.48,9.32Zm0,0H23.4a.41.41,0,0,0-.29.21c-.25.42.12.84.27,1l.64-1A1.13,1.13,0,0,0,23.48,9.32Zm0,0H23.4a.41.41,0,0,0-.29.21c-.25.42.12.84.27,1l.64-1A1.13,1.13,0,0,0,23.48,9.32Zm0,0H23.4a.41.41,0,0,0-.29.21c-.25.42.12.84.27,1l.64-1A1.13,1.13,0,0,0,23.48,9.32Zm0,0H23.4a.41.41,0,0,0-.29.21c-.25.42.12.84.27,1l.64-1A1.13,1.13,0,0,0,23.48,9.32Zm0,0H23.4a.41.41,0,0,0-.29.21c-.25.42.12.84.27,1l.64-1A1.13,1.13,0,0,0,23.48,9.32Zm0,0H23.4a.41.41,0,0,0-.29.21c-.25.42.12.84.27,1l.64-1A1.13,1.13,0,0,0,23.48,9.32Zm0,0H23.4a.41.41,0,0,0-.29.21c-.25.42.12.84.27,1l.64-1A1.13,1.13,0,0,0,23.48,9.32Zm0,0H23.4a.41.41,0,0,0-.29.21c-.25.42.12.84.27,1l.64-1A1.13,1.13,0,0,0,23.48,9.32Zm0,0H23.4a.41.41,0,0,0-.29.21c-.25.42.12.84.27,1l.64-1A1.13,1.13,0,0,0,23.48,9.32Zm0,0H23.4a.41.41,0,0,0-.29.21c-.25.42.12.84.27,1l.64-1A1.13,1.13,0,0,0,23.48,9.32Zm0,0H23.4a.41.41,0,0,0-.29.21c-.25.42.12.84.27,1l.64-1A1.13,1.13,0,0,0,23.48,9.32Zm-4.73,4.34h0v0Zm4.73-4.34H23.4a.41.41,0,0,0-.29.21c-.25.42.12.84.27,1l.64-1A1.13,1.13,0,0,0,23.48,9.32Zm0,0H23.4a.41.41,0,0,0-.29.21c-.25.42.12.84.27,1l.64-1A1.13,1.13,0,0,0,23.48,9.32Zm0,0H23.4a.41.41,0,0,0-.29.21c-.25.42.12.84.27,1l.64-1A1.13,1.13,0,0,0,23.48,9.32Zm0,0H23.4a.41.41,0,0,0-.29.21c-.25.42.12.84.27,1l.64-1A1.13,1.13,0,0,0,23.48,9.32Zm0,0H23.4a.41.41,0,0,0-.29.21c-.25.42.12.84.27,1l.64-1A1.13,1.13,0,0,0,23.48,9.32Zm0,0H23.4a.41.41,0,0,0-.29.21c-.25.42.12.84.27,1l.64-1A1.13,1.13,0,0,0,23.48,9.32Zm4.93,1.93V11.2h0a.14.14,0,0,0,0-.07v0a1,1,0,0,0-.42-.42h0l0,0a1.18,1.18,0,0,0-.08.88.8.8,0,0,0,.56.43A1.09,1.09,0,0,0,28.41,11.25ZM23.48,9.32H23.4a.41.41,0,0,0-.29.21c-.25.42.12.84.27,1l.64-1A1.13,1.13,0,0,0,23.48,9.32Zm0,0H23.4a.41.41,0,0,0-.29.21c-.25.42.12.84.27,1l.64-1A1.13,1.13,0,0,0,23.48,9.32Z"/><path class="cls-4" d="M28.31,12.08l-.76,1.44a.84.84,0,0,1-.5.42.82.82,0,0,1-.65-.06l-1.56-.82h0l-.54-1.64L25.15,10l1.07-.21h0l1.55.81a1.3,1.3,0,0,0-.08,1A.89.89,0,0,0,28.31,12.08Z"/><path d="M6.24,16.36a1.67,1.67,0,0,0-.29.3,2.09,2.09,0,0,1,.46-.42ZM5.6,17.5a1.83,1.83,0,0,1,.15-.5A1.53,1.53,0,0,0,5.6,17.5Zm0,0a1.83,1.83,0,0,1,.15-.5A1.53,1.53,0,0,0,5.6,17.5Zm.64-1.14a1.67,1.67,0,0,0-.29.3,2.09,2.09,0,0,1,.46-.42Z"/><path d="M23.08,22.34h0v0Zm0,0h0v0Zm0,0h0v0ZM9.16,14.85l-.06,0-.06,0v0l.07,0h.06Zm-2,.87-.49.21h0a2.63,2.63,0,0,0-.33.2,3.81,3.81,0,0,1,.58-.31l.24-.1Zm-1.48,1.1v0ZM26.32,9.68l-.08,0h0l-.21,0,.1.05.09,0h0l.1,0h0l.05,0Zm2.25,1.68a1.26,1.26,0,0,1-.05.58A1.05,1.05,0,0,0,28.57,11.36Zm0,0v0ZM28,10.57a1.2,1.2,0,0,1,.43.42A1.09,1.09,0,0,0,28,10.57Zm-.12.08h0l0,0ZM23.08,22.34h0v0Z"/><path d="M28.51,11.14a.14.14,0,0,0,0-.06l0,0Z"/><polygon class="cls-4" points="23.09 22.36 23.08 22.34 23.08 22.34 23.09 22.36"/><path class="cls-2" d="M28.37,12a.8.8,0,0,1-.56-.43,1.18,1.18,0,0,1,.08-.88h0l0,0h0a1,1,0,0,1,.42.42v0a.14.14,0,0,1,0,.07h0v.05A1.09,1.09,0,0,1,28.37,12Z"/><path d="M28.52,11.16v0l0,0Zm0,0,0,0a.14.14,0,0,1,0,.06Zm-.58-.45h0a1.18,1.18,0,0,1,.42.42A1,1,0,0,0,27.93,10.67Zm0-.17.1.06Z"/><path class="cls-1" d="M3.89,14.76,5.62,17v0s0,0,0,0,0,0,0,.05v0h0v.05l0,0v.05s0,.06,0,.08c-.36-.47-1.69-2.19-2.31-2.89l-.07-.08a5.31,5.31,0,0,1-1.64-3.08C1.4,9.84,2.28,9,4.33,8.47a31.48,31.48,0,0,1,3.28-.64H7.8l0,0,0,0,0,0A.38.38,0,0,1,8,8.17a12.36,12.36,0,0,0-3,.41A5,5,0,0,0,2.29,10a2,2,0,0,0-.23,2.1,12.13,12.13,0,0,0,1.73,2.52Z"/><path class="cls-1" d="M5.66,16.86v0h0Z"/><path class="cls-1" d="M7.83,9.53a4.14,4.14,0,0,1-2,.34,1.62,1.62,0,0,1-.71-.23h0a1.66,1.66,0,0,0-.91-.21,1.26,1.26,0,0,0-1,1,2.32,2.32,0,0,0,.74,2.17,18.38,18.38,0,0,0,3.26,3.12h0l-.24.1a3.81,3.81,0,0,0-.58.31,2.24,2.24,0,0,0-.55.5s0,0,0,0a.47.47,0,0,0-.08.14h0v0L4,14.68l-.09-.12c-1.6-2-2.47-3.11-1.5-4.46A4.88,4.88,0,0,1,5.06,8.71a11.89,11.89,0,0,1,3-.41C8.12,8.74,8.14,9.36,7.83,9.53Z"/><path d="M7.66,7.82h0Zm.2,0h0l0,0Zm-1.7,8.46a2.1,2.1,0,0,0-.36.37,2.24,2.24,0,0,1,.55-.5A1,1,0,0,0,6.16,16.26Zm.58-.21a1.93,1.93,0,0,0-.32.19c.15-.09.35-.2.56-.3l.07,0,0,0,.13-.06Zm-.58.21a2.1,2.1,0,0,0-.36.37,2.24,2.24,0,0,1,.55-.5A1,1,0,0,0,6.16,16.26Zm-.34.59,0,0s0,0,0,0h0l.06-.11,0-.06Zm-.17,0h0v0Zm-.05.62,0,.15v0l0-.17Z"/><path d="M7.84,7.79h0Z"/><path class="cls-3" d="M7.89,7.82l0,0h0Z"/><path d="M30.14,25.59a1.75,1.75,0,0,0-1.26-.52H28l-3.69-8.23,1-1.45a1,1,0,0,0,.1-1l-.48-1.17,1.43.75a1,1,0,0,0,.75.07,1,1,0,0,0,.58-.49l.79-1.51h0l0,0h0v0h0v0h0v0a1.26,1.26,0,0,0,.05-.58h0v0l0-.09v0l0,0h0a.14.14,0,0,0,0-.06l0,0,0,0a1.2,1.2,0,0,0-.43-.42h0l-.1-.06h0l-1.5-.79-.05,0h0l-.1,0,1.55.81a1.3,1.3,0,0,0-.08,1,.89.89,0,0,0,.62.5l-.76,1.44a.84.84,0,0,1-.5.42.82.82,0,0,1-.65-.06l-1.56-.82h0l-.54-1.64L25.15,10l1.07-.21-.09,0L26,9.68l-1,.19-.9,1.53.55,1.7h0v0l.05.13h0l.5,1.21a.87.87,0,0,1-.09.84l-.93,1.39h0l-.07.09h-1l-.39,0a5.35,5.35,0,0,1-1.27-.31,4.47,4.47,0,0,1-1-.86L19.4,14.47a2.34,2.34,0,0,1-.52-.81l-.05-.14a2.44,2.44,0,0,1-.09-.66V10.5a2.25,2.25,0,0,1,.66-1.6l1.66-1.67a2.27,2.27,0,0,1,1.61-.66H25a2.25,2.25,0,0,1,1.61.66,1.67,1.67,0,0,1,.43,1.18,1.74,1.74,0,0,1-.79,1.22h0l.08,0,.07,0a1.84,1.84,0,0,0,.8-1.29,1.81,1.81,0,0,0-.46-1.28A2.39,2.39,0,0,0,25,6.43H22.67a2.38,2.38,0,0,0-1.7.71L19.31,8.8a2.38,2.38,0,0,0-.71,1.7v3h-1C16.25,12.46,14.12,9.76,14,8a1.51,1.51,0,0,0,.66.14A1.54,1.54,0,0,0,15.42,8a1.31,1.31,0,0,0,.28-.17.26.26,0,0,0,.1-.23.25.25,0,0,0-.15-.19l-1.56-.63-.64-.28a3.16,3.16,0,0,1,2.08-.2,4.89,4.89,0,0,1,3,1.8.13.13,0,0,0,.11,0l.07,0a.22.22,0,0,0,.1-.23c0-.16-.08-.3-.13-.45h0l.5.35a.17.17,0,0,0,.22,0,.18.18,0,0,0,.08-.21c-.6-2.18-3.08-3-5-3h0a7.59,7.59,0,0,0-1.17.09c-.22,0-.44.08-.66.14a10,10,0,0,0-1.72.58,7.12,7.12,0,0,0-1.48-.51c-.28,0-.47.59-.57,1.75A.72.72,0,0,0,8.94,7V7H9a2.12,2.12,0,0,1,.18.87A2.3,2.3,0,0,1,9,8.53a2.12,2.12,0,0,1-.31.62.09.09,0,0,0,0,.07.06.06,0,0,0,.06,0h0a2.1,2.1,0,0,0,1.61-1.36l1,.57a5.25,5.25,0,0,0-2.5,4.47,11.58,11.58,0,0,0,.17,2l.06,0,.06,0A12,12,0,0,1,9,12.93a5.12,5.12,0,0,1,2.53-4.41l.1-.06L9.05,6.92a.82.82,0,0,1,0-.28C9.11,5.52,9.3,5,9.45,5a8,8,0,0,1,1.46.51h0l.53.23.48.21,0,0h0l.31.14.72.31,1,.43,1.56.63a.13.13,0,0,1,.07.09.12.12,0,0,1-.05.1,1.58,1.58,0,0,1-.93.32,1.57,1.57,0,0,1-.64-.14l-.06,0-.1,0V7.9s0,0,0,0c0,1.86,2.27,4.56,3.54,5.58H13.65a6.7,6.7,0,0,0-2.72.57l-1.77.76v.06H9.11l-.07,0v0l-1.73.75A18.78,18.78,0,0,1,4,12.52a2.21,2.21,0,0,1-.71-2.06,1.08,1.08,0,0,1,.89-.89h0A1.34,1.34,0,0,1,5,9.76,2,2,0,0,0,5.8,10a4.39,4.39,0,0,0,2.09-.35c.4-.22.38-1,.29-1.52A.49.49,0,0,0,8,7.84H8v0a.6.6,0,0,0-.32-.12H7.59a32.38,32.38,0,0,0-3.29.65c-2.1.51-3,1.45-3,2.95A5.28,5.28,0,0,0,3,14.44l.07.08c.68.78,2.2,2.75,2.38,3a8.9,8.9,0,0,1-1,3.24,36.63,36.63,0,0,1-2.53,2.8.59.59,0,0,0-.17.42v2.68a.6.6,0,0,0,.6.6H6.65A.29.29,0,0,0,6.94,27a1.84,1.84,0,0,0-1.83-1.83H4.58A1.66,1.66,0,0,1,5.79,24a18.77,18.77,0,0,0,2.4-.93V26.6a.66.66,0,0,0,.66.65h4.08a.48.48,0,0,0,.34-.14.45.45,0,0,0,.15-.34,1.54,1.54,0,0,0-1.54-1.54h-.94v-.5a.9.9,0,0,1,.25-.62l1.15-1.19a1,1,0,0,0,.28-.71V21H18v5.71a.7.7,0,0,0,.7.71h3.73a.68.68,0,0,0,.66-.67,1.59,1.59,0,0,0-1.59-1.58h-.86v-.88l1-2.6,1.33.75,2.08,4.32a.8.8,0,0,0,.74.49h4.47a.39.39,0,0,0,.39-.4A1.77,1.77,0,0,0,30.14,25.59ZM27.81,11.53a1.18,1.18,0,0,1,.08-.88h0l0,0h0a1,1,0,0,1,.42.42v0a.14.14,0,0,1,0,.07h0v.05a1.09,1.09,0,0,1,0,.71A.8.8,0,0,1,27.81,11.53ZM10.3,7.82A2.08,2.08,0,0,1,8.93,9.09a2,2,0,0,0,.23-.52,2.25,2.25,0,0,0,.11-.68,2.43,2.43,0,0,0-.13-.76Zm1.31-2.14-.51-.22h0a9.62,9.62,0,0,1,1.57-.52c.22-.06.44-.1.65-.14a8.77,8.77,0,0,1,1.15-.08h0c1.89,0,4.3.77,4.88,2.88a.07.07,0,0,1,0,.08s0,0-.07,0l-.5-.36-.18-.13A3.55,3.55,0,0,0,17.22,5.6a5,5,0,0,0-2.59-.72h0a5.33,5.33,0,0,0-1,.09l-.56.13a8.1,8.1,0,0,0-1.43.58Zm1.61.69-.08,0-.08,0h0l-.87-.37h0l-.36-.16h0a7.14,7.14,0,0,1,1.31-.52l.54-.13a5.18,5.18,0,0,1,1-.08h0A4.24,4.24,0,0,1,18.4,7a.75.75,0,0,1,.07.12h0l.06.13a3.75,3.75,0,0,1,.2.62.07.07,0,0,1,0,.08h0a5,5,0,0,0-3.12-1.84,4.93,4.93,0,0,0-.87-.09,2.73,2.73,0,0,0-1.38.35Zm6.09,8.19,1.13,1.13a4.39,4.39,0,0,0,1,.87,5.11,5.11,0,0,0,1.32.33l.45,0h.91l.1.23-.31,0h-.68l-.65-.05a4.84,4.84,0,0,1-1.21-.29,4.26,4.26,0,0,1-1-.81L19.37,15a2.13,2.13,0,0,1-.62-1.27A2.45,2.45,0,0,0,19.31,14.56Zm-.56-.9v0ZM8.07,8.3c0,.44.07,1.06-.24,1.23a4.14,4.14,0,0,1-2,.34,1.62,1.62,0,0,1-.71-.23h0a1.66,1.66,0,0,0-.91-.21,1.26,1.26,0,0,0-1,1,2.32,2.32,0,0,0,.74,2.17,18.38,18.38,0,0,0,3.26,3.12h0l-.24.1a3.81,3.81,0,0,0-.58.31,2.24,2.24,0,0,0-.55.5s0,0,0,0a.47.47,0,0,0-.08.14h0v0L4,14.68l-.09-.12c-1.6-2-2.47-3.11-1.5-4.46A4.88,4.88,0,0,1,5.06,8.71,11.89,11.89,0,0,1,8.07,8.3ZM5.66,16.86v0h0ZM7.86,7.8l0,0,0,0ZM3.18,14.44l-.07-.08a5.31,5.31,0,0,1-1.64-3.08C1.4,9.84,2.28,9,4.33,8.47a31.48,31.48,0,0,1,3.28-.64H7.8l0,0,0,0,0,0A.38.38,0,0,1,8,8.17a12.36,12.36,0,0,0-3,.41A5,5,0,0,0,2.29,10a2,2,0,0,0-.23,2.1,12.13,12.13,0,0,0,1.73,2.52l.1.12L5.62,17v0s0,0,0,0,0,0,0,.05v0h0v.05l0,0v.05s0,.06,0,.08C5.13,16.86,3.8,15.14,3.18,14.44Zm17.34,9.82v1h1A1.45,1.45,0,0,1,23,26.75a.52.52,0,0,1-.15.38.51.51,0,0,1-.37.15H18.71a.57.57,0,0,1-.57-.57V20.87H12.49v1.34a.9.9,0,0,1-.25.62L11.09,24a1,1,0,0,0-.29.71v.64h1.08a1.4,1.4,0,0,1,1.4,1.4.31.31,0,0,1-.1.24.34.34,0,0,1-.25.11H8.85a.52.52,0,0,1-.52-.52V23l5.53-3.34h4.2l3.48,2Zm9.75,2.86H25.8a.68.68,0,0,1-.62-.41l-2.09-4.35h0v0l-.22-.12-1.16-.66-3.59-2H13.83L8.23,22.9h0a18.57,18.57,0,0,1-2.47,1,1.82,1.82,0,0,0-1.32,1.33l0,.08h.7A1.69,1.69,0,0,1,6.81,27a.16.16,0,0,1-.16.16H2.34a.47.47,0,0,1-.47-.47V24A.45.45,0,0,1,2,23.64c.53-.55,1.86-1.91,2.54-2.8a8.68,8.68,0,0,0,1-3.19l0-.15h0a1.53,1.53,0,0,1,.15-.5v0h0l0,0h0s0,0,0,0l0,0,.06-.09h0a.21.21,0,0,0,0-.06l0,0H6a1.67,1.67,0,0,1,.29-.3l.17-.12h0a1.93,1.93,0,0,1,.32-.19l.48-.21.09,0h.06l2.09-.91L11,14.21a6.65,6.65,0,0,1,2.67-.55h5a2.26,2.26,0,0,0,.67,1.4l1.07,1.07a4.23,4.23,0,0,0,1,.83,4.64,4.64,0,0,0,1.26.31l.65.05H24l.4,0,3.55,7.91h1a1.66,1.66,0,0,1,1.65,1.65A.27.27,0,0,1,30.27,27.12Z"/><path class="cls-3" d="M18.7,8h0a5,5,0,0,0-3.12-1.84,4.93,4.93,0,0,0-.87-.09,2.73,2.73,0,0,0-1.38.35l-.08,0-.08,0-.08,0-.7-.3L12,5.86l0,0-.19-.08a7.14,7.14,0,0,1,1.31-.52l.54-.13a5.18,5.18,0,0,1,1-.08h0A4.24,4.24,0,0,1,18.4,7a.75.75,0,0,1,.07.12h0l.06.13a3.75,3.75,0,0,1,.2.62A.07.07,0,0,1,18.7,8Z"/><path class="cls-4" d="M30.53,26.85a.27.27,0,0,1-.26.27H25.8a.68.68,0,0,1-.62-.41l-2.09-4.35h0v0h0l-.22-.12-1.16-.66-3.24-1.83-.35-.2H13.83L8.23,22.9h0a18.57,18.57,0,0,1-2.47,1,1.82,1.82,0,0,0-1.32,1.33l0,.08h.7A1.69,1.69,0,0,1,6.81,27a.16.16,0,0,1-.16.16H2.34a.47.47,0,0,1-.47-.47V24A.45.45,0,0,1,2,23.64c.53-.55,1.86-1.91,2.54-2.8a8.68,8.68,0,0,0,1-3.19v0l0-.17h0a1.83,1.83,0,0,1,.15-.5v0h0l0,0,.06-.11,0-.06h0a.21.21,0,0,0,0-.06l0,0H6a2.09,2.09,0,0,1,.46-.42h0c.15-.09.35-.2.56-.3l.07,0,0,0,.13-.06.09,0h.06l2.09-.91L11,14.21a6.65,6.65,0,0,1,2.67-.55h5a2.26,2.26,0,0,0,.67,1.4l1.07,1.07a4.23,4.23,0,0,0,1,.83,4.64,4.64,0,0,0,1.26.31l.65.05H24l.4,0,3.55,7.91h1a1.66,1.66,0,0,1,1.65,1.65Z"/><path class="cls-3" d="M3.89,14.76,5.62,17v0s0,0,0,0,0,0,0,.05v0h0v.05l0,0v.05s0,.06,0,.08c-.36-.47-1.69-2.19-2.31-2.89l-.07-.08a5.31,5.31,0,0,1-1.64-3.08C1.4,9.84,2.28,9,4.33,8.47a31.48,31.48,0,0,1,3.28-.64H7.8l0,0,0,0,0,0A.38.38,0,0,1,8,8.17a12.36,12.36,0,0,0-3,.41A5,5,0,0,0,2.29,10a2,2,0,0,0-.23,2.1,12.13,12.13,0,0,0,1.73,2.52Z"/><path d="M7.86,7.8h0l0,0Zm.13,0a.48.48,0,0,0-.31-.12A.6.6,0,0,1,8,7.81ZM5.65,16.88h0v0Zm0-.06v0Zm-.09.68,0,.15v0l0-.17Z"/><path class="cls-1" d="M18.75,13.69v0h0Z"/><path class="cls-1" d="M24.27,17.16l-.31,0h-.68l-.65-.05a4.84,4.84,0,0,1-1.21-.29,4.26,4.26,0,0,1-1-.81L19.37,15a2.13,2.13,0,0,1-.62-1.27,2.45,2.45,0,0,0,.56.87l1.13,1.13a4.39,4.39,0,0,0,1,.87,5.11,5.11,0,0,0,1.32.33l.45,0h.91Z"/><path d="M18.75,13.69v0h0Z"/><path d="M23.31,16.92h0Z"/><path d="M23.86,16.8h0Z"/><path d="M18.75,13.66h0v0Zm7.57-4-.08,0h0l-.21,0,.1.05.09,0h0l.1,0h0l.05,0ZM24,16.8h0Zm-.68.13h0Z"/><path class="cls-2" d="M23.48,9.32a1.13,1.13,0,0,1,.54.2l-.64,1c-.15-.15-.52-.57-.27-1a.41.41,0,0,1,.29-.21Z"/><path class="cls-2" d="M23.36,16.79h0Z"/><path class="cls-2" d="M26.63,7.23A2.25,2.25,0,0,0,25,6.57H22.67a2.27,2.27,0,0,0-1.61.66L19.4,8.9a2.25,2.25,0,0,0-.66,1.6v2.36a2.44,2.44,0,0,0,.09.66l.05.14a2.34,2.34,0,0,0,.52.81l1.13,1.12a4.47,4.47,0,0,0,1,.86,5.35,5.35,0,0,0,1.27.31l.39,0h1l.07-.09h0l.93-1.39a.87.87,0,0,0,.09-.84l-.5-1.21h0l-.05-.13v0h0l-.55-1.7.9-1.53,1-.19.21,0h0a1.74,1.74,0,0,0,.79-1.22A1.67,1.67,0,0,0,26.63,7.23Zm-3.22,3.49-.06-.05s-.72-.6-.35-1.21a.55.55,0,0,1,.37-.27,1.18,1.18,0,0,1,.78.26l.05,0Z"/><path d="M24.15,9.45a1.18,1.18,0,0,0-.78-.26.55.55,0,0,0-.37.27c-.37.61.35,1.21.35,1.21l.06.05.79-1.23Zm-.77,1.07c-.15-.15-.52-.57-.27-1a.41.41,0,0,1,.29-.21h.08a1.13,1.13,0,0,1,.54.2Z"/><path class="cls-3" d="M24,9.52l-.64,1c-.15-.15-.52-.57-.27-1a.41.41,0,0,1,.29-.21h.08A1.13,1.13,0,0,1,24,9.52Z"/><path d="M26.31,10.63h-.59a.07.07,0,0,1-.07-.07.07.07,0,0,1,.07-.06h.59a.06.06,0,0,1,.06.06S26.35,10.63,26.31,10.63Z"/><path d="M6.23,8.75a.07.07,0,1,1,0-.13l.44,0s.07,0,.07.06a.06.06,0,0,1-.06.07l-.44,0Z"/><path d="M12.09,6.75h0l-.55-.3a.07.07,0,0,1,0-.09.06.06,0,0,1,.09,0l.54.3a.07.07,0,0,1,0,.09A.08.08,0,0,1,12.09,6.75Z"/></g></svg>